<?xml version="1.0" encoding="utf-8"?>

<!-- Uploaded to: SVG Repo, www.svgrepo.com, Generator: SVG Repo Mixer Tools -->
<svg version="1.1" id="Icons" xmlns="http://www.w3.org/2000/svg" xmlns:xlink="http://www.w3.org/1999/xlink" 
	 viewBox="0 0 32 32" xml:space="preserve">
<style type="text/css">
	.st0{fill:none;stroke:#000000;stroke-width:2;stroke-linecap:round;stroke-linejoin:round;stroke-miterlimit:10;}
</style>
<path d="M2,1C1.4,1,1,1.4,1,2v13h14V1H2z M11,9H9v2c0,0.6-0.4,1-1,1s-1-0.4-1-1V9H5C4.4,9,4,8.6,4,8s0.4-1,1-1h2V5c0-0.6,0.4-1,1-1
	s1,0.4,1,1v2h2c0.6,0,1,0.4,1,1S11.6,9,11,9z"/>
<path d="M1,17v13c0,0.6,0.4,1,1,1h13V17H1z M10.8,25.4c0.4,0.4,0.4,1,0,1.4c-0.2,0.2-0.5,0.3-0.7,0.3S9.6,27,9.4,26.8L8,25.4
	l-1.4,1.4c-0.2,0.2-0.5,0.3-0.7,0.3S5.4,27,5.2,26.8c-0.4-0.4-0.4-1,0-1.4L6.6,24l-1.4-1.4c-0.4-0.4-0.4-1,0-1.4
	c0.4-0.4,1-0.4,1.4,0L8,22.6l1.4-1.4c0.4-0.4,1-0.4,1.4,0c0.4,0.4,0.4,1,0,1.4L9.4,24L10.8,25.4z"/>
<path d="M30,1H17v14h14V2C31,1.4,30.6,1,30,1z M27,9h-6c-0.6,0-1-0.4-1-1s0.4-1,1-1h6c0.6,0,1,0.4,1,1S27.6,9,27,9z"/>
<path d="M17,17v14h13c0.6,0,1-0.4,1-1V17H17z M27,27h-6c-0.6,0-1-0.4-1-1s0.4-1,1-1h6c0.6,0,1,0.4,1,1S27.6,27,27,27z M27,23h-6
	c-0.6,0-1-0.4-1-1s0.4-1,1-1h6c0.6,0,1,0.4,1,1S27.6,23,27,23z"/>
</svg>