<svg xmlns="http://www.w3.org/2000/svg" xmlns:xlink="http://www.w3.org/1999/xlink" viewBox="0 0 1041.18 314.26"><defs><style>.cls-1{fill:#f12833;}.cls-2,.cls-4{fill:#f9ef6d;}.cls-3{fill:#f38444;}.cls-4{opacity:0.59;isolation:isolate;}.cls-5{fill:#f27838;}.cls-6{fill:url(#linear-gradient);}.cls-7{fill:url(#linear-gradient-2);}.cls-8{fill:url(#linear-gradient-3);}.cls-9{fill:url(#linear-gradient-4);}.cls-10{fill:url(#linear-gradient-5);}.cls-11{fill:url(#linear-gradient-6);}</style><linearGradient id="linear-gradient" x1="954.29" y1="1269.7" x2="954.29" y2="1607.38" gradientTransform="matrix(1, 0, 0, -1, 0, 1544.72)" gradientUnits="userSpaceOnUse"><stop offset="0" stop-color="#f4c75f" stop-opacity="0"/><stop offset="0.06" stop-color="#f4c861" stop-opacity="0.02"/><stop offset="0.12" stop-color="#f5ca69" stop-opacity="0.06"/><stop offset="0.18" stop-color="#f6cf75" stop-opacity="0.14"/><stop offset="0.23" stop-color="#f7d586" stop-opacity="0.25"/><stop offset="0.29" stop-color="#f8dd9d" stop-opacity="0.38"/><stop offset="0.35" stop-color="#fae6b8" stop-opacity="0.55"/><stop offset="0.4" stop-color="#fcf1d8" stop-opacity="0.76"/><stop offset="0.46" stop-color="#fffefc" stop-opacity="0.98"/><stop offset="0.46" stop-color="#fff"/><stop offset="0.47" stop-color="#f6f6f6" stop-opacity="0.96"/><stop offset="0.49" stop-color="#c8c8c8" stop-opacity="0.78"/><stop offset="0.51" stop-color="#9d9d9d" stop-opacity="0.61"/><stop offset="0.54" stop-color="#777" stop-opacity="0.47"/><stop offset="0.57" stop-color="#575757" stop-opacity="0.34"/><stop offset="0.6" stop-color="#3b3b3b" stop-opacity="0.23"/><stop offset="0.64" stop-color="#252525" stop-opacity="0.15"/><stop offset="0.68" stop-color="#141414" stop-opacity="0.08"/><stop offset="0.73" stop-color="#090909" stop-opacity="0.03"/><stop offset="0.8" stop-color="#020202" stop-opacity="0.01"/><stop offset="1" stop-opacity="0"/></linearGradient><linearGradient id="linear-gradient-2" x1="603.28" y1="1269.61" x2="603.28" y2="1607.29" xlink:href="#linear-gradient"/><linearGradient id="linear-gradient-3" x1="427.19" y1="1269.7" x2="427.19" y2="1607.38" xlink:href="#linear-gradient"/><linearGradient id="linear-gradient-4" x1="76.96" y1="1269.7" x2="76.96" y2="1607.38" xlink:href="#linear-gradient"/><linearGradient id="linear-gradient-5" x1="252.43" y1="1269.7" x2="252.43" y2="1607.38" xlink:href="#linear-gradient"/><linearGradient id="linear-gradient-6" x1="778.83" y1="1269.7" x2="778.83" y2="1607.38" xlink:href="#linear-gradient"/></defs><g id="Layer_2" data-name="Layer 2"><g id="Layer_1-2" data-name="Layer 1"><g id="Layer_2-2" data-name="Layer 2"><g id="Layer_2-2-2" data-name="Layer 2-2"><path class="cls-1" d="M1041.18,23.55A13.47,13.47,0,0,0,1037,13.8h0L1026.88,3.73,1018.82,10H887.39V35.62l-10.06,7.2,10.06,10H905V189.63l-6.22,1.81,10,10,.34.34.24.24h0a13.46,13.46,0,0,0,9.12,3.57h30.16V127.9l43.19,66-2.42,1.67,10.06,10h41.69L990.35,127.9h50.83ZM999.49,87.66H948.66V52.82h50.83Z"/><polygon class="cls-1" points="522.51 10 512.45 0 501.59 7.53 503.9 10 470.23 10 438.02 63.13 406.5 10 396.45 0 390.42 5.09 393 10 351.65 10 410.94 107.78 368.89 177.13 368.69 176.49 341.6 195.56 351.65 205.56 406.5 205.56 438.02 152.44 462.75 193.24 460.17 195.56 470.23 205.56 522.51 205.56 464.51 107.78 522.51 10"/><path class="cls-1" d="M325.79,13.29l-9.85-9.83L315,10H207.86A13.6,13.6,0,0,0,194.3,23.55v167l-6.28.87,10,10,.51.5.24.24h0a13.48,13.48,0,0,0,9,3.48H317a13.56,13.56,0,0,0,11.23-6,13.53,13.53,0,0,0,2.25-6.18,12.75,12.75,0,0,0,.07-1.38v-29.4l-10-10-7.41,10H238V127.9h92.55V87.6l-10-10-9.85,10H238V52.82h92.55V23.55A13.52,13.52,0,0,0,325.79,13.29Z"/><polygon class="cls-1" points="681.51 10 527.67 10 527.67 36.79 517.62 42.82 527.67 52.82 588.97 52.82 588.97 188.79 578.91 195.56 588.97 205.56 639.78 205.56 639.78 52.82 699.03 52.82 699.03 10 688.97 0 681.51 10"/><path class="cls-1" d="M160.4,14.57h0l-.17-.17c-.26-.28-.53-.54-.8-.8l-10-9.94L140.29,10H10.06V39.57L0,42.82l10.06,10H27.62V162.75H10.06v27.94L0,195.56l10.06,10H150.29A13.6,13.6,0,0,0,163.85,192V23.55A13.53,13.53,0,0,0,160.4,14.57ZM122.16,162.75H71.35V52.82h50.81Z"/><path class="cls-1" d="M853.38,14.43l-.21-.2-.49-.5L842.57,3.67,838.91,10H734.26A13.6,13.6,0,0,0,720.7,23.55V191.28h-6.39l10.41,10.36h0a13.54,13.54,0,0,0,9.54,3.94H843.38a13.45,13.45,0,0,0,8.6-3.1,13.63,13.63,0,0,0,2.63-2.89,13.53,13.53,0,0,0,2.25-6.18,12.75,12.75,0,0,0,.07-1.38V162.68l-10.06-10-12.29,10h-70.2V127.9h92.55V87.6l-10.06-10-9.6,10H764.38V52.82h92.55V23.55a13.55,13.55,0,0,0-3.56-9.11Z"/><path d="M1031.12,195.56,980.29,117.9h50.83V13.55A13.6,13.6,0,0,0,1017.56,0H877.33V42.82h17.56V182a13.59,13.59,0,0,0,13.55,13.55H938.6V117.9l50.83,77.66ZM938.6,42.82h50.83V77.66H938.6Z"/><path class="cls-2" d="M928.6,112.19v73.37H908.45a3.61,3.61,0,0,1-3.56-3.55V32.82H887.33V10h130.24a3.6,3.6,0,0,1,3.55,3.55V107.9H961.79l50.83,77.66H994.84l-48-73.33Zm0-24.53h70.83V32.82H928.6Z"/><polygon id="T" points="517.62 0 688.97 0 688.97 42.82 629.72 42.82 629.72 195.56 578.91 195.56 578.91 42.82 517.62 42.82 517.62 0"/><polygon class="cls-2" points="588.91 185.56 588.91 32.82 527.62 32.82 527.62 10 678.97 10 678.97 32.82 619.72 32.82 619.72 185.56 588.91 185.56"/><polygon points="460.17 0 427.96 53.13 396.45 0 341.6 0 400.88 97.78 341.6 195.56 396.45 195.56 427.96 142.44 460.17 195.56 512.45 195.56 454.45 97.78 512.45 0 460.17 0"/><polygon class="cls-2" points="465.8 185.56 427.87 123 390.75 185.56 359.35 185.56 412.58 97.78 359.35 10 390.75 10 427.87 72.57 465.8 10 494.89 10 442.82 97.78 494.89 185.56 465.8 185.56"/><path d="M140.24,0H0V42.82H17.56V152.75H0v42.81H140.24A13.59,13.59,0,0,0,153.79,182V13.55A13.59,13.59,0,0,0,140.24,0ZM112.1,152.75H61.29V42.82H112.1Z"/><path class="cls-2" d="M10,185.56V162.75H27.56V32.82H10V10H140.24a3.6,3.6,0,0,1,3.55,3.55V182a3.6,3.6,0,0,1-3.55,3.55Zm41.29-22.81H122.1V32.82H51.29Z"/><path id="E" d="M320.48,42.82V13.55A13.6,13.6,0,0,0,306.92,0H197.8a13.59,13.59,0,0,0-13.55,13.55V182a13.59,13.59,0,0,0,13.55,13.55H306.92a13.56,13.56,0,0,0,11.23-6,14.69,14.69,0,0,0,1.26-2.3,13.69,13.69,0,0,0,1-3.88c0-.45.07-.92.07-1.38V152.68H227.93V117.9h92.55V77.6H227.93V42.82Z"/><path class="cls-2" d="M197.8,185.56a3.59,3.59,0,0,1-3.55-3.55V13.55A3.6,3.6,0,0,1,197.8,10H306.92a3.61,3.61,0,0,1,3.56,3.55V32.82H217.93V87.6h92.55v20.3H217.93v54.78h92.55v19.69a3.51,3.51,0,0,1-.26,1,3.6,3.6,0,0,1-.33.61,4,4,0,0,1-.71.78,3.52,3.52,0,0,1-2.24.81Z"/><path id="E-2" d="M846.87,42.82V13.55A13.59,13.59,0,0,0,833.32,0H724.2a13.6,13.6,0,0,0-13.56,13.55V182a13.6,13.6,0,0,0,13.56,13.55H833.32a13.56,13.56,0,0,0,11.23-6,13.53,13.53,0,0,0,2.25-6.18,12.75,12.75,0,0,0,.07-1.38V152.68H754.32V117.9h92.55V77.6H754.32V42.82Z"/><path class="cls-2" d="M724.2,185.56a3.61,3.61,0,0,1-3.56-3.55V13.55A3.61,3.61,0,0,1,724.2,10H833.32a3.6,3.6,0,0,1,3.55,3.55V32.82H744.32V87.6h92.55v20.3H744.32v54.78h92.55v19.67a3.88,3.88,0,0,1-.26,1,3.51,3.51,0,0,1-.33.6,3.82,3.82,0,0,1-.71.79,3.52,3.52,0,0,1-2.24.81Z"/><path class="cls-3" d="M70.34,32.82h12A16.88,16.88,0,0,0,70.34,32.82Z"/><path class="cls-3" d="M21.28,21.21c1,1.31,1.46,2-.74,2.75-2.86,1-4.68.89-7.19-1.31A17.51,17.51,0,0,0,10,20.34v2.25a15.85,15.85,0,0,1,3.12,2.35c1,.95,1.27,1.73-.25,2.37a.59.59,0,0,0-.24.17A6,6,0,0,1,10,29.36v3.46h1.06c6.11-6.32,17.35-8.9,25.22-5.32,4,1.83,7.62,4.11,10.24,7.74l.95,1.35c-.12.76-.62.82-1.09,1a16.64,16.64,0,0,0-3.09,1c-1.39.71-2.2.37-3.26-.74a16.8,16.8,0,0,0-15.28-5h2.81v1.79a14.55,14.55,0,0,1,10,3.55,22.13,22.13,0,0,1,1.79,2c-1.44,1.13-2.85,2.14-4.13,3.28-.82.73-1.24.37-2-.14a9.92,9.92,0,0,0-5.72-2.17v2h.38c1.91.21,4.14.5,4.61,2.83.3,1.51-3.06,4-4.93,4H27.5v1.94a23.26,23.26,0,0,1,19,9.33c1.11,1.5,1,1.88-.79,2.53-2.87,1.05-4.86,1.14-7.43-1.38a14.56,14.56,0,0,0-10.79-3.89v2h.33a15.53,15.53,0,0,1,10.53,4.37c.94.91,1.07,1.55-.19,2.24A6.38,6.38,0,0,0,36.6,68.3c-1.4,1.46-2.47,1.6-4.34.23a7.36,7.36,0,0,0-4.7-1.48v2.08H28c2,0,4.07.62,4.65,2.76.38,1.38-3.19,3.94-5,3.91h-.1v4.71a19.06,19.06,0,0,1,7.17,1.61c4,1.83,7.62,4.11,10.24,7.74l1,1.34c-.12.77-.62.83-1.1,1a16.54,16.54,0,0,0-3.08,1c-1.39.72-2.2.37-3.27-.74A16.81,16.81,0,0,0,27.56,87.2v2a14.28,14.28,0,0,1,8.49,3.5,25.28,25.28,0,0,1,1.79,2C36.4,95.84,35,96.85,33.71,98c-.82.72-1.24.37-2-.14a12,12,0,0,0-4.17-2v2c1.57.26,3.06.81,3.44,2.67.23,1.16-1.69,2.9-3.44,3.65v2.33A23.2,23.2,0,0,1,45,115.8c1.11,1.5,1,1.88-.79,2.53-2.87,1-4.86,1.14-7.43-1.38a14.24,14.24,0,0,0-9.24-3.88v2a15.34,15.34,0,0,1,9.3,4.28c1,.9,1.08,1.55-.18,2.23A7.16,7.16,0,0,0,35,122.85c-1.4,1.47-2.47,1.6-4.34.24a7.61,7.61,0,0,0-3.15-1.37v2a3.8,3.8,0,0,1,3.55,2.69c.29,1.06-1.76,2.82-3.55,3.56v4.23a18.86,18.86,0,0,1,6.77,1.57c4,1.83,7.62,4.11,10.24,7.75.35.47.68.95,1,1.34-.13.76-.63.82-1.1,1a16.88,16.88,0,0,0-3.09,1c-1.39.72-2.2.37-3.26-.74A16.87,16.87,0,0,0,27.56,141v2a14.15,14.15,0,0,1,8.09,3.47c.58.52,1.06,1.14,1.8,1.95-1.45,1.14-2.85,2.14-4.14,3.28-.81.73-1.24.38-2-.14a12.77,12.77,0,0,0-3.77-1.91v2c1.41.29,2.7.9,3,2.6.22,1.07-1.41,2.64-3,3.46v2.54a23.15,23.15,0,0,1,17.06,9.28c1.11,1.49,1,1.87-.79,2.52-2.87,1-4.85,1.15-7.42-1.38-5.34-5.24-14.69-5.07-20.8-.37-2.78,2.15-3.72,2.86-5.61,2.42V175a24.14,24.14,0,0,1,10.2,7.68c1.05,1.32,1.46,2-.74,2.76l-.21.06H29.1a6.62,6.62,0,0,1,.74-.92,23.49,23.49,0,0,1,18.88-9.85c7.94.39,14.4,3.34,19.16,9.75a4.22,4.22,0,0,1,.6,1h3.3c-1.5-.79-3.15-2.48-3.23-3.6s2.93-3,5-2.79c1.91.22,4.14.51,4.61,2.83.22,1.12-1.55,2.78-3.24,3.56H78.2a3.57,3.57,0,0,1,.73-1,23.47,23.47,0,0,1,37.76-.38,3.62,3.62,0,0,1,.85,1.42h9.9a6,6,0,0,1,.74-.92,23.09,23.09,0,0,1,15.61-9.53v-3.9c-1.39-.86-2.57-2.2-2.29-3.09a3.59,3.59,0,0,1,2.29-2.34v-2.05a10.75,10.75,0,0,0-2.63,1.51c-3.07,2.31-4.08-1.15-5.58-2.23-1.73-1.24.52-2.22,1.39-2.94a14.5,14.5,0,0,1,6.82-3.18v-2a17.49,17.49,0,0,0-9.65,5.11c-1,1.06-6.56.8-7.43-.38-.58-.78.15-1.25.55-1.76,4.29-5.48,9.69-8.78,16.53-9.57V144.8c-1.25-.83-2.28-2-2.06-2.77a3.51,3.51,0,0,1,2.06-2.35V137.6a5.63,5.63,0,0,0-1.39.88c-2.19,1.9-3.31,1.14-5.05-.34-2.61-2.21-2.71-2.13,0-4.33a15.14,15.14,0,0,1,6.48-2.95v-2.1a17.17,17.17,0,0,0-9.07,4.69c-.66.64-1.08,1.92-2.22,1.66a25,25,0,0,1-5.32-1.77c-1-.46.06-1.18.41-1.65a23.12,23.12,0,0,1,16.2-9.62v-6.48a1.73,1.73,0,0,1-.42-1.43,4.37,4.37,0,0,1,.42-.87v-2.53c-.25.16-.51.34-.76.53-3.07,2.31-4.08-1.15-5.58-2.23-1.73-1.24.52-2.22,1.39-2.94a14.74,14.74,0,0,1,5-2.73v-2A18,18,0,0,0,136,106c-1,1.07-6.56.81-7.43-.37-.58-.78.15-1.26.55-1.76a23.91,23.91,0,0,1,14.66-9.29V89.71c-.85-.73-1.44-1.56-1.27-2.17a3.51,3.51,0,0,1,1.27-1.91V83.57a5.13,5.13,0,0,0-.6.44c-2.19,1.91-3.31,1.14-5.05-.34-2.61-2.21-2.71-2.12,0-4.33a14.8,14.8,0,0,1,5.69-2.77V74.44A17.19,17.19,0,0,0,135.51,79c-.66.64-1.08,1.93-2.22,1.66A25.37,25.37,0,0,1,128,78.87c-1-.46.06-1.17.41-1.65a23.22,23.22,0,0,1,15.41-9.5V61.09a1.61,1.61,0,0,1-.34-1.32,4.3,4.3,0,0,1,.34-.76V56.42c-.23.15-.46.31-.68.48-3.07,2.31-4.08-1.15-5.58-2.23-1.73-1.24.52-2.22,1.39-2.94a14.75,14.75,0,0,1,4.87-2.7V47a17.92,17.92,0,0,0-7.7,4.65c-1.05,1.07-6.56.81-7.44-.37-.57-.78.15-1.26.55-1.76a23.91,23.91,0,0,1,14.59-9.27V34.67a1.55,1.55,0,0,1-.4-1.25,4.34,4.34,0,0,1,.4-.91V30.12c-2,1.61-3.12.85-4.78-.56-2.6-2.21-2.7-2.13,0-4.33a14.42,14.42,0,0,1,4.81-2.53V20.55a17.47,17.47,0,0,0-7.41,4.32c-.66.64-1.08,1.92-2.22,1.65a25.73,25.73,0,0,1-5.32-1.76c-1-.46.07-1.18.41-1.65a23.2,23.2,0,0,1,14.54-9.36v-.2a3.56,3.56,0,0,0-1.35-2.74,5.53,5.53,0,0,1-5.66-.81H134a16.31,16.31,0,0,1,2,1.6c.94.91,1.07,1.55-.19,2.23a7.16,7.16,0,0,0-1.63,1.27c-1.4,1.47-2.47,1.6-4.34.24-3-2.15-6.27-1.9-9.42.17-.61.41-1.18,1.61-2.24.81A30.2,30.2,0,0,1,114,13c-.45-.47.55-1.14,1-1.59a16.77,16.77,0,0,1,1.75-1.4h-3.34c-2.54,1.85-3.3,1.69-7.23,0H95.77c-.16.62-.62.69-1.06.82a16.88,16.88,0,0,0-3.09,1c-1.38.72-2.19.37-3.26-.74-.36-.38-.74-.72-1.12-1.06H84a13.33,13.33,0,0,1,1.91,1.42c.57.53,1,1.15,1.79,2-1.45,1.13-2.85,2.14-4.13,3.28-.82.72-1.25.37-2-.14-4.1-2.85-7-2.94-10.75,0-1.45,1.12-2,.27-2.93-.48-3.62-3-3.62-3.62.39-6H65.09c-.3.26-.6.51-.88.79-1.77,1.77-5.94,1.58-7.37-.35a.81.81,0,0,1-.18-.44h-12l-.36.14c-2.3.75-4,.95-5.89-.25h-2.9a16.61,16.61,0,0,1,1.43,1.21c1,.9,1.08,1.54-.19,2.23a6.51,6.51,0,0,0-1.63,1.27c-1.4,1.46-2.46,1.6-4.33.24-2.95-2.15-6.28-1.9-9.43.17-.61.4-1.17,1.61-2.24.81A32.16,32.16,0,0,1,15,12.59c-.44-.46.55-1.13,1-1.58a12.47,12.47,0,0,1,1.18-1H13.91a3.89,3.89,0,0,1-3.91.68v2.46A23.91,23.91,0,0,1,21.28,21.21Zm4.44,162.92c-1.73,0-5.1-2.92-4.72-4.27.73-2.57,3.09-2.38,5.06-2.39s4.08.61,4.66,2.75C31.09,181.6,27.52,184.16,25.72,184.13Zm10.56-8.76a6.28,6.28,0,0,0-1.63,1.27c-1.4,1.46-2.46,1.6-4.34.23-2.94-2.14-6.27-1.89-9.42.18-.61.4-1.17,1.61-2.24.81a31.89,31.89,0,0,1-4.09-3.34c-.44-.46.55-1.13,1-1.58a15.4,15.4,0,0,1,10.35-4.18,15.49,15.49,0,0,1,10.53,4.38c1,.86,1.1,1.54-.16,2.23Zm6-147.09c-2.6-2.21-2.7-2.12,0-4.33a16,16,0,0,1,10.07-3.32A14.53,14.53,0,0,1,62.19,25c1.07,1.07,1.05,1.71-.26,2.45a7.73,7.73,0,0,0-1.85,1.47c-1.09,1.21-1.91,1.45-3.37.21-2.75-2.34-6.78-2.73-9.32-.53-2.2,1.93-3.32,1.16-5.06-.32Zm3.29,138.84c.68-2.14,2.72-2.74,4.77-2.73s4.17.4,4.83,2.62c.44,1.46-2.93,4.05-4.9,4.05s-5.1-2.52-4.65-3.94Zm35.24,12.35c-.82.72-1.24.37-2-.14-4.11-2.86-7-3-10.76-.05-1.44,1.13-2,.27-2.93-.47-3.68-3.06-3.62-3.64.6-6.13,5.42-3.18,13-2.52,17.41,1.55a25.28,25.28,0,0,1,1.79,2c-1.37,1.09-2.78,2.1-4.06,3.24Zm16.24-7.42c-1.8,0-5.16-2.47-4.79-3.83.64-2.29,2.83-2.88,4.93-2.85s4.11.52,4.81,2.7c.5,1.42-2.89,4-4.9,4Zm24.5,13.08c-1.73,0-5.09-2.92-4.71-4.27.72-2.57,3.09-2.38,5.06-2.39s4.07.61,4.65,2.75c.45,1.38-3.14,3.94-5,3.91Zm10.56-8.76a6.64,6.64,0,0,0-1.62,1.27c-1.4,1.46-2.47,1.6-4.34.23-3-2.14-6.28-1.89-9.43.18-.61.4-1.17,1.61-2.24.81a31.12,31.12,0,0,1-4.08-3.34c-.45-.46.55-1.13,1-1.58a14.86,14.86,0,0,1,20.87.2c1,.86,1.16,1.54-.11,2.23Zm-11.74-158c.72-2.56,3.09-2.37,5.06-2.39s4.07.62,4.65,2.76c.38,1.38-3.19,3.94-5,3.91s-5.08-3-4.66-4.33ZM132.16,28.5c4,1.83,7.62,4.11,10.24,7.74.35.48.68,1,1,1.35-.13.76-.63.82-1.1,1a16.88,16.88,0,0,0-3.09,1c-1.39.71-2.2.37-3.26-.74a16.83,16.83,0,0,0-13.81-5.19v2.08a14.78,14.78,0,0,1,11.38,3.47,22,22,0,0,1,1.8,2c-1.45,1.13-2.85,2.14-4.14,3.28-.81.73-1.24.37-2-.14-2.67-1.86-4.84-2.53-7.06-2v2a4.55,4.55,0,0,1,1.72-.18c1.92.21,4.14.5,4.61,2.83.31,1.51-3,4-4.92,4a3.46,3.46,0,0,1-1.41-.43V53a23.3,23.3,0,0,1,20.35,9.28c1.11,1.5,1,1.88-.79,2.53-2.87,1-4.85,1.14-7.42-1.38a14.89,14.89,0,0,0-12.14-3.8v2c.55-.07,1.11-.12,1.67-.14a15.48,15.48,0,0,1,10.53,4.37c1,.91,1.07,1.55-.19,2.24a6.28,6.28,0,0,0-1.63,1.27c-1.4,1.46-2.46,1.6-4.34.23a7.28,7.28,0,0,0-6-1.3v1.93H124c2,0,4.08.62,4.66,2.76.37,1.38-3.2,3.94-5,3.91a3.37,3.37,0,0,1-1.45-.45v5a20.39,20.39,0,0,1,10,1.53c4,1.83,7.62,4.11,10.24,7.74l.95,1.35c-.12.76-.62.82-1.1,1a16.88,16.88,0,0,0-3.09,1c-1.38.71-2.19.37-3.26-.74A16.85,16.85,0,0,0,122.1,88v2.08a14.82,14.82,0,0,1,11.31,3.48,23.76,23.76,0,0,1,1.79,2c-1.45,1.13-2.85,2.14-4.13,3.28-.82.73-1.25.38-2-.14-2.64-1.83-4.78-2.52-7-2v2a4.54,4.54,0,0,1,1.64-.16c1.92.21,4.14.5,4.61,2.83.31,1.51-3,4-4.92,4a3.25,3.25,0,0,1-1.33-.39v2.36a23.31,23.31,0,0,1,20.28,9.29c1.1,1.5,1,1.88-.8,2.53-2.87,1-4.85,1.15-7.42-1.38A14.86,14.86,0,0,0,122.07,114v2c.53-.07,1.06-.11,1.6-.13a15.5,15.5,0,0,1,10.52,4.37c.95.91,1.08,1.55-.19,2.24a6.64,6.64,0,0,0-1.62,1.27c-1.4,1.46-2.47,1.6-4.34.23a7.28,7.28,0,0,0-6-1.32v2h1.72c2,0,4.07.61,4.65,2.75.38,1.38-3.19,3.94-5,3.91a3.16,3.16,0,0,1-1.37-.41v4.46a19.54,19.54,0,0,1,8.12,1.61c4,1.83,7.62,4.11,10.24,7.75l.95,1.34c-.12.76-.62.82-1.1,1a16.88,16.88,0,0,0-3.09,1c-1.38.72-2.19.37-3.26-.74A16.85,16.85,0,0,0,122,142.05v2a14.5,14.5,0,0,1,9.44,3.56c.57.52,1.05,1.14,1.79,2-1.44,1.14-2.85,2.14-4.13,3.28-.82.73-1.25.38-2-.14A10.57,10.57,0,0,0,122,150.6v2c1.87.21,3.93.56,4.38,2.8.28,1.37-2.47,3.57-4.38,3.95v2a23.24,23.24,0,0,1,18.41,9.34c1.1,1.49,1,1.87-.8,2.52-2.87,1-4.85,1.15-7.42-1.38-5.34-5.24-14.69-5.07-20.79-.37-4.19,3.23-4.19,3.23-9.54.92a22.72,22.72,0,0,1,11.35-9.49h-4.86a2.27,2.27,0,0,1-.92.79,7.77,7.77,0,0,0-1.85,1.48c-1.09,1.2-1.91,1.44-3.37.2-2.75-2.34-6.78-2.73-9.32-.52-2.2,1.9-3.32,1.13-5.06-.34a14,14,0,0,1-1.75-1.61H79.57a17.18,17.18,0,0,1,2.31.83c4,1.83,7.62,4.11,10.24,7.74l.95,1.34c-.12.76-.62.83-1.09,1a17.68,17.68,0,0,0-3.09,1c-1.39.72-2.2.37-3.26-.74a16.79,16.79,0,0,0-23.73-.69l-.43.42c-1.77,1.77-5.94,1.57-7.37-.35-.47-.64,0-1.06.35-1.56,2.75-4.41,7.8-7.56,13.27-8.94h-7.3c-1.91,2.11-4,2.73-6.51.84a7.16,7.16,0,0,0-1.47-.84H51.29v-.37c-2.08-.42-4.11.42-6,1.86-3.07,2.31-4.08-1.15-5.58-2.23C38,161,40.23,160,41.1,159.26a14,14,0,0,1,8.37-3.34,15.48,15.48,0,0,1,1.83.07v-2.11a17,17,0,0,0-13,5.28c-1,1.06-6.56.8-7.44-.38-.57-.78.15-1.25.55-1.76,4.85-6.19,11.12-9.61,19.29-9.76h.63V144a4.35,4.35,0,0,1-1.73.45c-1.81,0-5.17-2.47-4.79-3.83.64-2.3,2.82-2.88,4.93-2.85a8.48,8.48,0,0,1,1.59.15v-2.07A6.47,6.47,0,0,0,45.44,137c-2.2,1.9-3.32,1.13-5.06-.35-2.6-2.21-2.7-2.12,0-4.33a16.18,16.18,0,0,1,10-3.32,3.65,3.65,0,0,1,.87.07v-1.9A16.54,16.54,0,0,0,37.76,132c-.67.64-1.08,1.93-2.22,1.66a25,25,0,0,1-5.32-1.77c-1-.46.06-1.17.41-1.64a23.43,23.43,0,0,1,18.88-9.85,17.32,17.32,0,0,1,1.78.14v-3.23a3.7,3.7,0,0,1-.57.07c-1.92,0-5.16-2.51-4.7-3.94.68-2.14,2.71-2.74,4.77-2.73h.5v-2.08a7.79,7.79,0,0,0-5.61,1.91c-3.07,2.32-4.09-1.15-5.59-2.22-1.73-1.25.52-2.22,1.39-3A14,14,0,0,1,49.86,102a13.11,13.11,0,0,1,1.43,0V99.92a17.12,17.12,0,0,0-12.64,5.3c-1,1.06-6.56.81-7.43-.37-.57-.78.15-1.26.55-1.77,4.85-6.19,11.12-9.61,19.29-9.75h.23v-3a2.86,2.86,0,0,1-.58.06c-1.8,0-5.17-2.47-4.79-3.83.64-2.29,2.83-2.88,4.93-2.85h.44v-2a6.28,6.28,0,0,0-4.69,1.43c-2.2,1.9-3.32,1.14-5.06-.34-2.6-2.21-2.71-2.13,0-4.33a16,16,0,0,1,9.78-3.31V73.17a16.66,16.66,0,0,0-12.38,4.89c-.66.64-1.08,1.92-2.22,1.66A25.69,25.69,0,0,1,31.37,78c-.95-.46.06-1.18.41-1.65A23.49,23.49,0,0,1,50.66,66.5h.63v-4c-1.86-.5-4.11-2.5-3.72-3.73a4,4,0,0,1,3.72-2.66V54a9.05,9.05,0,0,0-4.06,1.9c-3.07,2.31-4.09-1.15-5.59-2.23-1.73-1.24.52-2.22,1.39-2.94a14,14,0,0,1,8.26-3.33v-2A17.39,17.39,0,0,0,40.2,50.62c-1.05,1.07-6.56.81-7.43-.37-.57-.78.15-1.26.55-1.76,4.59-5.86,10.44-9.23,18-9.7V36c-1.84-.18-4.94-2.5-4.58-3.81.64-2.3,2.83-2.89,4.93-2.86s4.11.53,4.81,2.7a1.19,1.19,0,0,1-.09.83h2.48c9.18-10.39,25.67-10.1,34.71,0H96a1.28,1.28,0,0,1-.1-.86c.68-2.14,2.72-2.74,4.78-2.72s4.16.39,4.83,2.62a1.28,1.28,0,0,1-.11.88H108C114.29,27.24,124.73,25.12,132.16,28.5ZM91.37,24a14,14,0,0,1,8.37-3.33,15.37,15.37,0,0,1,11.53,4.4c1,1,1.27,1.73-.25,2.37a.81.81,0,0,0-.24.17c-1.94,2.17-4,2.83-6.59.92-3-2.23-5.94-1.38-8.63.64C92.49,31.48,91.48,28,90,26.94,88.25,25.69,90.5,24.72,91.37,24Zm-9.71-2.24a23.51,23.51,0,0,1,37.82-.43c1,1.32,1.46,2-.75,2.76-2.85,1-4.67.88-7.18-1.32-6.94-6.1-16.53-5.38-23,1.12-1,1.06-6.56.81-7.43-.37-.59-.78.14-1.26.54-1.77Zm-5.39-5.39c1.92.22,4.14.51,4.61,2.83.31,1.52-3,4-4.92,4-1.63,0-4.56-2.55-4.67-4.05-.09-1.15,2.93-3,5-2.79Zm-43.7,5.47A23.48,23.48,0,0,1,51.46,12c7.94.39,14.4,3.33,19.16,9.75,1.06,1.42,1,2-.8,2.25a1.59,1.59,0,0,0-.57.14c-2.68,1.48-4.44.76-6.89-1.3a16.44,16.44,0,0,0-22.66.76c-.66.64-1.08,1.93-2.22,1.66a25.57,25.57,0,0,1-5.32-1.77c-.95-.49.07-1.18.41-1.66Zm-11.09-3.9c.72-2.57,3.08-2.38,5.05-2.39s4.08.61,4.66,2.75c.37,1.38-3.2,3.94-5,3.91s-5.1-2.93-4.71-4.28Z"/><path class="cls-3" d="M87,185.56h3.34A13.47,13.47,0,0,1,97,183.47a15.82,15.82,0,0,1,8.48,2.09h3.26C102.24,179.86,93.41,180.14,87,185.56Z"/><path class="cls-3" d="M143.79,181.81a17.06,17.06,0,0,0-7.53,3.75h3.4a15.92,15.92,0,0,1,3.38-1.42,3.52,3.52,0,0,0,.75-2.13Z"/><path class="cls-3" d="M11.35,162.75A7,7,0,0,0,10,163.83v2.56a22.51,22.51,0,0,1,5.18-3.64Z"/><path class="cls-3" d="M10,182.5v2.31c.34.24.68.48,1,.75h3.27a8.91,8.91,0,0,1-2-1.38A17.75,17.75,0,0,0,10,182.5Z"/><path class="cls-3" d="M37.92,185.56h3.4a16.77,16.77,0,0,1,8.31-2.12,14,14,0,0,1,6.93,2.12h3A16.39,16.39,0,0,0,37.92,185.56Z"/><path class="cls-3" d="M216.7,141.7c.42.19.82.39,1.23.59v-2.76a24.23,24.23,0,0,1-4.55-1.57c-1-.46.06-1.18.41-1.65a25.5,25.5,0,0,1,4.14-4.42v-3c-1.1.84-2.1.76-3.66-.38-3-2.14-6.28-1.89-9.43.18-.61.4-1.17,1.61-2.24.81a31.12,31.12,0,0,1-4.08-3.34c-.45-.47.55-1.13,1-1.59a15.35,15.35,0,0,1,10.35-4.17,15.65,15.65,0,0,1,8,2.42V120.5c-5.44-3.24-13.11-2.56-18.36,1.49-2.64,2-3.62,2.79-5.32,2.48V127a24.4,24.4,0,0,1,9.71,7.49c1,1.32,1.46,2-.74,2.76-2.86,1-4.68.88-7.18-1.32a16.86,16.86,0,0,0-1.79-1.36V137a17.71,17.71,0,0,1,1.55,1.32c1,1,1.28,1.72-.24,2.37a.67.67,0,0,0-.25.16,8.36,8.36,0,0,1-1.06,1v2.83C200.6,140.12,209.9,138.61,216.7,141.7ZM205,131.53c.72-2.57,3.08-2.38,5.06-2.39s4.07.61,4.65,2.75c.37,1.38-3.19,3.94-5,3.91S204.58,132.88,205,131.53Z"/><path class="cls-3" d="M196.22,44.07a4.17,4.17,0,0,1-2,1v2.78A23.24,23.24,0,0,1,202.63,55c1.05,1.43,1,2-.8,2.26a1.26,1.26,0,0,0-.57.14c-2.68,1.48-4.44.76-6.9-1.31l-.11-.08v2.34c.91.94,1,1.54,0,2.19V63a23.59,23.59,0,0,1,23.68-2.44V57.83c-1.94.07-4.27-.3-4.82-1s.15-1.25.55-1.76a28.21,28.21,0,0,1,4.27-4.4V48.05c-.81.62-1.59,1.23-2.33,1.89s-1.24.37-2-.14c-4.1-2.86-7-2.95-10.75,0-1.45,1.12-2,.27-2.94-.47-3.67-3.06-3.62-3.64.61-6.13,5.41-3.18,12.93-2.52,17.39,1.54v-2.5A16.76,16.76,0,0,0,196.22,44.07Zm12.06,5.57c1.92.22,4.14.5,4.61,2.83.31,1.51-3,4-4.92,4-1.63,0-4.56-2.55-4.68-4C203.21,51.24,206.22,49.41,208.28,49.64Z"/><path class="cls-3" d="M197.9,68.52a14.2,14.2,0,0,1-3.65,2.39v3.32a24.56,24.56,0,0,1,8.84,7.11c1.06,1.32,1.47,2-.74,2.76-2.85,1-4.67.88-7.18-1.32-.3-.26-.61-.5-.92-.74v2.42l.69.61c1,1,1.27,1.73-.25,2.37a.81.81,0,0,0-.24.17l-.2.21v3.9c6.19-5.41,16.31-7.49,23.68-4.35V84.86a22,22,0,0,1-3.76-1.37c-.95-.46.06-1.17.41-1.65a26.88,26.88,0,0,1,3.35-3.72V74a7.29,7.29,0,0,0-1,.84c-1.4,1.47-2.46,1.6-4.34.24-2.94-2.15-6.27-1.9-9.42.17-.61.4-1.17,1.61-2.24.81a32.67,32.67,0,0,1-4.09-3.33c-.44-.47.55-1.14,1-1.59a14.82,14.82,0,0,1,20-.53V68.22C212.5,63.69,203.72,64,197.9,68.52Zm5.39,9.54c.73-2.56,3.09-2.38,5.06-2.39s4.08.61,4.66,2.75c.37,1.38-3.2,3.94-5,3.92S202.91,79.42,203.29,78.06Z"/><path class="cls-3" d="M217.93,113.3v-2c-1.44-.12-2.76-.46-3.15-1-.58-.78.15-1.25.54-1.76,4.86-6.19,11.12-9.62,19.3-9.76A23.71,23.71,0,0,1,253,107.9h2.49c-1.28-1-2.37-2.3-2.14-3.11.72-2.56,3.08-2.37,5-2.39s4.08.62,4.66,2.76c.21.76-.8,1.89-2.05,2.74h2.52A23.37,23.37,0,0,1,281,99.73c7.25.36,13.27,2.85,17.89,8.17h2.32a2.39,2.39,0,0,1-.38-1c-.09-1.19,2.93-3,5-2.79s4.14.5,4.61,2.83a1.46,1.46,0,0,1-.2,1h.24v-4.1c-3.75-2.39-6.54-2.31-10.07.42-1.44,1.12-2,.27-2.93-.47-3.68-3.06-3.62-3.65.6-6.13a15.63,15.63,0,0,1,12.4-1.29V94.25a16.78,16.78,0,0,0-16.72,4.28c-1.77,1.77-5.94,1.58-7.37-.35-.46-.63,0-1.06.35-1.55,2.8-4.5,8-7.69,13.6-9h-7.56c-1.93,2.18-4,2.83-6.58.92a7.13,7.13,0,0,0-1.66-.93h-4.16a10.77,10.77,0,0,0-2.81,1.57c-2.59,2-3.71-.2-4.9-1.57h-4a22.71,22.71,0,0,1,8.25,6.88c1.1,1.5,1,1.88-.8,2.53-2.87,1-4.85,1.14-7.42-1.38-5.34-5.24-14.69-5.08-20.79-.38-4.2,3.24-4.2,3.24-9.54.92a22.66,22.66,0,0,1,9.27-8.57h-3.88A7.63,7.63,0,0,0,242.09,89c-1.1,1.21-1.91,1.45-3.37.21A8.24,8.24,0,0,0,236,87.6h-4.82a5.85,5.85,0,0,0-1.75,1c-2.19,1.91-3.31,1.14-5-.34l-.82-.69h-5.05c3.95,1.81,7.48,4.08,10.06,7.66l.95,1.34c-.12.76-.62.82-1.1,1a16.88,16.88,0,0,0-3.09,1c-1.38.71-2.19.37-3.26-.74a16.79,16.79,0,0,0-23.73-.69l-.42.41a5.12,5.12,0,0,1-3.63,1.22v1.86a23,23,0,0,1,10,7.87c1.06,1.42,1,2-.8,2.25a1.83,1.83,0,0,0-.57.14c-2.68,1.48-4.44.77-6.89-1.3a20.9,20.9,0,0,0-1.78-1.31v2.12a14.93,14.93,0,0,1,1.6,1.38c1.08,1.08,1.06,1.71-.25,2.45a7.73,7.73,0,0,0-1.35,1v2.58A23.41,23.41,0,0,1,217.93,113.3Zm60-21.25c.68-2.14,2.72-2.74,4.77-2.72s4.17.39,4.83,2.62c.44,1.46-2.93,4-4.9,4s-5.17-2.47-4.72-3.9Zm-30,5.82a14.88,14.88,0,0,1,20.87.2c.95.91,1.08,1.55-.19,2.23a7.16,7.16,0,0,0-1.63,1.27c-1.4,1.47-2.46,1.6-4.33.24-2.95-2.15-6.28-1.9-9.43.17-.61.41-1.17,1.61-2.24.81a30.35,30.35,0,0,1-4.09-3.33c-.48-.46.51-1.14,1-1.59Zm-19.17-5.71c.64-2.3,2.82-2.89,4.93-2.85s4.11.52,4.8,2.69c.46,1.43-2.94,4-4.94,4-1.84,0-5.21-2.48-4.83-3.84ZM201.6,102.75c-3.68-3.06-3.63-3.65.6-6.13,5.42-3.19,13-2.53,17.41,1.55.57.52,1,1.14,1.79,2-1.45,1.13-2.85,2.14-4.13,3.28-.82.73-1.25.38-2-.14-4.1-2.85-7-2.94-10.75,0C203.08,104.34,202.49,103.49,201.6,102.75Zm3.4,3.15c-.09-1.19,2.93-3,5-2.79s4.14.5,4.61,2.83c.31,1.51-3.05,4-4.92,4C208,109.94,205.07,107.4,205,105.9Z"/><path class="cls-3" d="M225.65,107.9h4.67a12,12,0,0,1,3.09-.5,18.51,18.51,0,0,1,4.51.5H243A16,16,0,0,0,225.65,107.9Z"/><path class="cls-3" d="M274.27,107.9h13.41A16,16,0,0,0,274.27,107.9Z"/><path class="cls-3" d="M203.42,185.56c.78-2.39,3.08-2.22,5-2.23s3.69.52,4.45,2.23h3.66a23.6,23.6,0,0,1,15.13-5.75c6.05.3,11.24,2.08,15.48,5.75h5.29a6.19,6.19,0,0,1,4.05-1.37c1.4.16,3,.36,3.89,1.37h5.29a23.15,23.15,0,0,1,30.53,0h4.53c.93-1.81,3-1.67,4.77-1.68a5.58,5.58,0,0,1,3.5,1l.16-.11a4,4,0,0,0,.71-.78,3.75,3.75,0,0,0,.24-.44l-.35-.24c-2.95-2.15-6.28-1.9-9.43.17-.61.4-1.17,1.61-2.24.81A32.67,32.67,0,0,1,294,181c-.44-.47.55-1.14,1-1.59a15.35,15.35,0,0,1,10.35-4.17,16.38,16.38,0,0,1,5.09,1V174A17.31,17.31,0,0,0,295,176.78c-4.19,3.23-4.19,3.23-9.54.92a23.1,23.1,0,0,1,25-10.46v-2a1.1,1.1,0,0,1-.22-.21c-.42-.58-.13-1,.22-1.38v-.94H309a6.66,6.66,0,0,1-3.93,2,6,6,0,0,1-3.47-2h-2.3c.15.18.29.36.43.55,1.05,1.42,1,2-.8,2.25a1.59,1.59,0,0,0-.57.14c-2.68,1.48-4.44.76-6.9-1.3a18.27,18.27,0,0,0-2.28-1.64H285a15.07,15.07,0,0,1,6.36,3.83c1.08,1.07,1.06,1.71-.25,2.45a7.73,7.73,0,0,0-1.85,1.47c-1.1,1.2-1.91,1.45-3.37.2-2.75-2.33-6.78-2.72-9.32-.52-2.2,1.91-3.32,1.14-5.06-.34-2.6-2.21-2.71-2.12,0-4.33a14.89,14.89,0,0,1,5.63-2.76H272a18.89,18.89,0,0,0-3.1,2.4c-.66.64-1.08,1.92-2.22,1.66a25,25,0,0,1-5.32-1.77c-.95-.46.06-1.18.41-1.65.17-.22.34-.42.5-.64h-2.56a5.12,5.12,0,0,1-2.45.86,4.44,4.44,0,0,1-2.12-.86h-3.27c.79,1,.89,1.64-1.06,2.34-2.86,1-4.68.89-7.19-1.31a15.21,15.21,0,0,0-1.28-1h-4a15.36,15.36,0,0,1,5.08,3.32c1,.95,1.28,1.73-.25,2.37a.78.78,0,0,0-.24.16c-1.93,2.18-4,2.83-6.59.93-3-2.24-5.93-1.39-8.62.64-3.07,2.31-4.09-1.15-5.59-2.23-1.73-1.24.52-2.22,1.39-2.94a14.84,14.84,0,0,1,3.69-2.25h-4a19.17,19.17,0,0,0-2.53,2.15c-1.05,1.06-6.56.81-7.43-.38-.57-.78.15-1.25.55-1.76a28.2,28.2,0,0,1,4.19-4.34v-2.58c-.78.59-1.54,1.19-2.25,1.83s-1.24.37-2-.15c-4.11-2.85-7-2.94-10.76,0-1.44,1.12-2,.27-2.93-.47-3.68-3.06-3.62-3.64.6-6.13,5.39-3.16,12.86-2.53,17.32,1.47v-2.44a16.77,16.77,0,0,0-21.64,1.89,4.17,4.17,0,0,1-2,1v2.73a22.94,22.94,0,0,1,8.45,7.16c1.06,1.43,1,2-.79,2.25a1.47,1.47,0,0,0-.58.15c-2.67,1.48-4.44.76-6.89-1.31l-.19-.14V166h0c1,1,1,1.62,0,2.3v2.41A23.5,23.5,0,0,1,227,175.41c1.11,1.49,1,1.88-.79,2.52-2.87,1-4.86,1.15-7.43-1.38-5.34-5.24-14.69-5.07-20.79-.37a13.48,13.48,0,0,1-3.73,2.41v3.27a23.5,23.5,0,0,1,5.66,3.7ZM208,164.14c-1.63,0-4.56-2.55-4.67-4-.09-1.19,2.93-3,5-2.79,1.91.21,4.14.5,4.61,2.83C213.27,161.64,209.91,164.15,208,164.14Zm55.77,20.35c-.81.72-1.24.37-2-.15-4.11-2.85-7-2.94-10.76,0-1.44,1.12-2,.27-2.93-.47-3.68-3.06-3.62-3.64.6-6.13,5.42-3.19,13-2.52,17.41,1.55.57.52,1.06,1.15,1.79,2-1.38,1.1-2.79,2.11-4.07,3.25Zm12.06-10.85c.64-2.3,2.83-2.89,4.93-2.86s4.11.53,4.81,2.7c.45,1.43-2.94,4-4.95,4-1.76,0-5.13-2.48-4.75-3.84Zm-11-5c4,1.83,7.62,4.12,10.24,7.75l.95,1.34c-.12.76-.62.82-1.09,1a16.64,16.64,0,0,0-3.09,1c-1.39.72-2.2.37-3.26-.74a16.79,16.79,0,0,0-23.73-.69l-.43.42c-1.76,1.77-5.94,1.57-7.37-.36-.46-.63,0-1,.35-1.55,5.17-8.4,18.48-12.29,27.43-8.22ZM228,173c.68-2.14,2.71-2.74,4.77-2.73s4.16.4,4.83,2.62c.44,1.46-2.93,4-4.9,4S227.53,174.4,228,173Zm-30,5.82a14.88,14.88,0,0,1,20.88.2c.94.9,1.07,1.54-.19,2.23A6.74,6.74,0,0,0,217,182.5c-1.4,1.47-2.47,1.6-4.34.24-3-2.15-6.27-1.9-9.42.17-.61.4-1.18,1.61-2.24.81a32.67,32.67,0,0,1-4.09-3.33c-.43-.47.57-1.14,1.09-1.59Z"/><path class="cls-3" d="M203.89,26.87c1.05,1.32,1.46,2-.74,2.76-2.86,1-4.68.88-7.19-1.32A18,18,0,0,0,194.25,27v2.35c.51.39,1,.82,1.48,1.26,1,.95,1.27,1.72-.25,2.37a.56.56,0,0,0-.24.16,9.44,9.44,0,0,1-1,1V37c6.34-4.5,15.6-6,22.37-2.89.44.2.88.4,1.31.62V32.82h3.84c-.44-.71.15-1.2,1.82-2.58a16.14,16.14,0,0,1,10.07-3.32,14.5,14.5,0,0,1,9.82,4.39c.61.61.85,1.08.72,1.51h5.2a23.76,23.76,0,0,1,16,0h5.39c-.8-1.05,1.05-1.89,1.82-2.53A14,14,0,0,1,281,27a15.39,15.39,0,0,1,11.52,4.4c.57.55.89,1,.79,1.47h9.32a23.57,23.57,0,0,1,7.81-.35v-7a7.22,7.22,0,0,1-4.85,3.07c-1.73,0-5.09-2.92-4.71-4.28C301.64,21.78,304,22,306,22s3.77.55,4.5,2.36V21.52l-.25-.16c-3-2.15-6.28-1.9-9.43.17-.61.4-1.17,1.61-2.24.81a32.14,32.14,0,0,1-4.1-3.34c-.45-.47.55-1.14,1-1.59a15.35,15.35,0,0,1,10.35-4.17,16.84,16.84,0,0,1,4.62.8v-.5a3.58,3.58,0,0,0-.54-1.83,17.4,17.4,0,0,0-14.41,3.08c-4.19,3.23-4.19,3.23-9.54.92a23.34,23.34,0,0,1,4.9-5.72H285a3.47,3.47,0,0,1,1,1.55c.45,1.43-2.94,4-4.95,4-1.8,0-5.16-2.47-4.79-3.83A3.5,3.5,0,0,1,277.4,10h-6.22a20.37,20.37,0,0,1,5,4.8l1,1.34c-.12.77-.62.83-1.09,1a16.64,16.64,0,0,0-3.09,1c-1.39.71-2.2.36-3.26-.75A16.81,16.81,0,0,0,246,16.73l-.4.39c-1.77,1.77-5.94,1.58-7.37-.35-.47-.63,0-1.06.35-1.55a18.41,18.41,0,0,1,5-5.18h-4.42a3,3,0,0,1,.2.49c.44,1.46-2.93,4-4.9,4s-5.15-2.51-4.7-3.94A4,4,0,0,1,230,10h-4a21.85,21.85,0,0,1,2.69,3c1.11,1.5,1,1.88-.79,2.53-2.87,1-4.85,1.14-7.42-1.38-5.34-5.25-14.69-5.08-20.8-.38-2.68,2.07-3.65,2.81-5.39,2.47v3.14A24.49,24.49,0,0,1,203.89,26.87ZM205,23.34c.73-2.56,3.09-2.37,5.06-2.39s4.08.62,4.66,2.76c.37,1.37-3.2,3.93-5,3.91S204.65,24.7,205,23.34Zm52.22,6.16c-1.63,0-4.56-2.56-4.67-4.06-.09-1.18,2.93-3,5-2.79s4.14.51,4.61,2.83c.32,1.52-3,4-4.91,4Zm25-11.21a23.76,23.76,0,0,1,18.48,9.33c1,1.32,1.46,2-.74,2.76-2.86,1-4.68.88-7.19-1.32-6.93-6.1-16.52-5.38-23,1.12-1,1.07-6.56.81-7.43-.37-.57-.78.15-1.26.55-1.77,4.91-6.18,11.18-9.61,19.35-9.75ZM249.8,16.17c5.42-3.19,13-2.53,17.41,1.55a22.13,22.13,0,0,1,1.79,2c-1.44,1.13-2.85,2.14-4.13,3.28-.82.72-1.24.37-2-.14-4.11-2.85-7-2.94-10.76,0-1.44,1.12-2,.27-2.93-.47-3.64-3.15-3.58-3.74.64-6.22Zm-17.07,2.11c7.94.39,14.4,3.33,19.16,9.75,1.06,1.42,1,2-.79,2.25a1.65,1.65,0,0,0-.58.14c-2.68,1.48-4.44.76-6.89-1.3a16.42,16.42,0,0,0-22.65.77c-.67.63-1.08,1.92-2.22,1.65a25.54,25.54,0,0,1-5.32-1.76c-1-.47.06-1.18.41-1.65a23.39,23.39,0,0,1,18.9-9.85ZM199.6,16.42a14.9,14.9,0,0,1,20.88.2c1,.9,1.07,1.55-.19,2.23a7.16,7.16,0,0,0-1.63,1.27c-1.4,1.47-2.46,1.6-4.34.24-2.94-2.15-6.27-1.9-9.42.17-.61.4-1.17,1.61-2.24.81A31.85,31.85,0,0,1,198.59,18c-.44-.46.55-1.13,1-1.58Z"/><path class="cls-3" d="M419.92,59.17,417,54.3c-2,.25-5-.12-5.67-1s.15-1.25.55-1.76A31.58,31.58,0,0,1,414,49.18l-1.43-2.41a4.58,4.58,0,0,1-.7-.44c-4.1-2.85-7-2.94-10.75,0-1.45,1.12-2.05.27-2.94-.47-3.67-3.06-3.62-3.65.61-6.13a15.25,15.25,0,0,1,8.4-2L406,35.64a16.77,16.77,0,0,0-11.49,5c-1.77,1.77-6,1.57-7.37-.36-.47-.63,0-1.06.35-1.55,3-4.83,8.76-8.15,14.82-9.29l-1.76-3c-2.37.68-4.06.37-6.3-1.6-6.94-6.1-16.52-5.38-23,1.12a3.28,3.28,0,0,1-1.84.6l2.93,4.85a22.56,22.56,0,0,1,5.28,5.13c1.07,1.46,1,1.86-.66,2.48l1.83,3a28.53,28.53,0,0,1,2.92-.26c8,.39,14.41,3.33,19.17,9.75,1.05,1.42,1,2-.8,2.25a1.6,1.6,0,0,0-.57.15c-2.68,1.48-4.44.76-6.9-1.31a17.21,17.21,0,0,0-9.9-4.11l1.23,2a14.62,14.62,0,0,1,8.5,4.29c1.08,1.07,1.06,1.71-.25,2.45a7.73,7.73,0,0,0-1.85,1.47,4.24,4.24,0,0,1-.94.8l1,1.68A23.53,23.53,0,0,1,419.92,59.17ZM378.27,31.25c-3.07,2.31-4.08-1.15-5.58-2.23-1.73-1.24.52-2.22,1.39-2.94a14,14,0,0,1,8.38-3.34A15.4,15.4,0,0,1,394,27.14c1,1,1.28,1.73-.25,2.38a.56.56,0,0,0-.24.16c-1.94,2.18-4,2.83-6.59.92C383.89,28.37,381,29.22,378.27,31.25Zm.34,2.87c.68-2.13,2.72-2.74,4.78-2.72s4.16.39,4.83,2.62c.44,1.46-2.93,4-4.9,4S378.16,35.55,378.61,34.12ZM401.55,49c-.09-1.19,2.92-3,5-2.79s4.14.5,4.61,2.83c.31,1.51-3.05,4-4.92,4C404.59,53,401.66,50.47,401.55,49Z"/><path class="cls-3" d="M464.42,147.56c-5.34-5.25-14.69-5.08-20.79-.38l-.75.58,1.06,1.75a14.86,14.86,0,0,1,20.54.49c.95.9,1.08,1.55-.19,2.23a7.16,7.16,0,0,0-1.63,1.27c-1.4,1.47-2.46,1.6-4.33.24-2.95-2.15-6.28-1.9-9.43.17-.48.32-.94,1.14-1.65,1.06l5.57,9.17a20.24,20.24,0,0,1,10.11,1.52c4,1.83,7.62,4.11,10.24,7.74l.95,1.34c-.12.77-.62.83-1.09,1a16.64,16.64,0,0,0-3.09,1c-1.39.72-2.2.37-3.27-.74a16.87,16.87,0,0,0-9.76-5.06l1.41,2.33a13.81,13.81,0,0,1,5.93,3.09,25.28,25.28,0,0,1,1.79,2c-1.09.85-2.14,1.65-3.16,2.48l1.06,1.73A23.5,23.5,0,0,1,479.26,177a23.83,23.83,0,0,1,12.93,4l-2.67-4.5c-1.31.32-2.63-.25-5.62-1.55a24.27,24.27,0,0,1,2.62-3.51l-1.92-3.23a3,3,0,0,1-.35-.27c-2.75-2.34-6.78-2.73-9.32-.52-2.2,1.9-3.32,1.13-5.06-.34-2.6-2.21-2.7-2.13,0-4.33a16,16,0,0,1,9.56-3.31l-1.15-1.95a16.84,16.84,0,0,0-11,4.9c-.66.64-1.08,1.92-2.22,1.66a27,27,0,0,1-5.32-1.77c-.95-.46.06-1.18.41-1.65a23.18,23.18,0,0,1,14.46-9.34l-1.68-2.83a5,5,0,0,1-1.05.48C469,150,467,150.08,464.42,147.56Zm9.83,23.38c.64-2.29,2.83-2.88,4.93-2.85s4.11.52,4.81,2.69c.45,1.43-2.94,4-4.95,4C477.24,174.76,473.87,172.3,474.25,170.94ZM453.73,161c-1.73,0-5.1-2.92-4.71-4.28.72-2.56,3.08-2.37,5.05-2.39s4.08.62,4.66,2.76C459.1,158.46,455.53,161,453.73,161Z"/><path class="cls-3" d="M372.77,185.56h15.75A16,16,0,0,0,372.77,185.56Z"/><path class="cls-3" d="M471.11,185.56h15.74A16,16,0,0,0,471.11,185.56Z"/><path class="cls-3" d="M395,17.2l-2.25-3.8a18,18,0,0,1-4.56-1.62c.38-.62.79-1.21,1.21-1.78h-2.5a4.65,4.65,0,0,1-6.56.44,4.57,4.57,0,0,1-.44-.44h-2.8c.15.2.32.39.47.59l.95,1.35c-.12.76-.62.82-1.1,1a16.88,16.88,0,0,0-3.09,1c-1.38.71-2.19.36-3.26-.74A17,17,0,0,0,367,10h-6.87a14.26,14.26,0,0,1,8.51,3.51,22.13,22.13,0,0,1,1.79,2c-1.44,1.13-2.85,2.14-4.13,3.28a1.08,1.08,0,0,1-1.53.17l0,0,1.61,2.66a23.54,23.54,0,0,1,17.31-7.46A24,24,0,0,1,395,17.2Z"/><path class="cls-3" d="M483.76,10a6.89,6.89,0,0,1-4.53,2.6,7,7,0,0,1-4.41-2.6h-2.13a18.62,18.62,0,0,1,1.56,1.87l.95,1.34c-.12.76-.62.82-1.1,1a16.88,16.88,0,0,0-3.09,1c-1.38.72-2.19.37-3.26-.74a17.13,17.13,0,0,0-3.09-2.54l-1,1.63a12,12,0,0,1,1.66,1.27,25.47,25.47,0,0,1,1.79,2C465.67,18,464.26,19,463,20.12c-.82.72-1.25.37-2-.15-.29-.2-.58-.38-.85-.55l-.91,1.49a2.92,2.92,0,0,1,1,1.74c.28,1.4-2.58,3.66-4.49,4l-1.21,2A23.31,23.31,0,0,1,474.24,38c1.1,1.49,1,1.88-.8,2.52-2.86,1-4.85,1.15-7.42-1.38-4.09-4-10.55-4.85-16.09-2.9l-1.82,3a15.81,15.81,0,0,1,7.45-2,15.49,15.49,0,0,1,10.52,4.38c.95.9,1.08,1.54-.19,2.23a6.89,6.89,0,0,0-1.62,1.27c-1.4,1.47-2.47,1.6-4.34.24-2.95-2.15-6.27-1.9-9.42.17-.62.4-1.18,1.61-2.25.81s-2.06-1.5-3-2.33L444,46.05a25.61,25.61,0,0,1,5.63,5.27c1.06,1.32,1.46,2-.74,2.76-2.86,1-4.68.89-7.18-1.31a14.45,14.45,0,0,0-1.2-1l-1,1.64a17.18,17.18,0,0,1,2,1.61c1,.95,1.27,1.73-.25,2.37a.82.82,0,0,0-.25.16c-1.53,1.73-3.16,2.49-5,1.78l-.84,1.39a3.38,3.38,0,0,1,.62,1.17c.36,1.18-1.76,3.08-3.62,3.78l-2.4,3.94H430c7.95.39,14.41,3.33,19.17,9.75,1.05,1.42,1,2-.8,2.25a1.83,1.83,0,0,0-.57.14c-2.68,1.48-4.44.76-6.9-1.3a16.43,16.43,0,0,0-22.65.77c-.66.64-1.08,1.92-2.22,1.65A25.92,25.92,0,0,1,410.68,81c-.95-.46.06-1.18.41-1.65a23.24,23.24,0,0,1,15.16-9.47l-1.81-3h-.07c-2.87,1-4.85,1.15-7.42-1.38-5.34-5.24-14.69-5.07-20.79-.37-1,.75-1.73,1.32-2.37,1.74l1.24,2c.15-.4.76-.84,1.11-1.16a14.86,14.86,0,0,1,20.87.2c.95.9,1.08,1.54-.19,2.23a7.16,7.16,0,0,0-1.63,1.27c-1.4,1.47-2.46,1.6-4.33.24-2.95-2.15-6.28-1.9-9.43.17-.61.4-1.17,1.61-2.24.81a40.69,40.69,0,0,1-3.64-2.91l3.32,5.47a29.09,29.09,0,0,1,2.48,2.72c.78,1,1.2,1.59.47,2.16l2.12,3.49A20.6,20.6,0,0,1,414.8,85c4,1.83,7.62,4.12,10.24,7.75l.95,1.34c-.12.76-.62.82-1.1,1a16.88,16.88,0,0,0-3.09,1c-1.38.72-2.19.37-3.26-.74a16.87,16.87,0,0,0-10.62-5.18l1.36,2.26a13.88,13.88,0,0,1,6.84,3.28,23.6,23.6,0,0,1,1.79,2c-1.44,1.14-2.85,2.14-4.13,3.29-.82.72-1.25.37-2-.15l-.72-.47-.92,1.52a3,3,0,0,1,.91,1.63c.27,1.35-2.38,3.49-4.28,3.93l-1.22,2a23.29,23.29,0,0,1,19.52,9.34c1.1,1.49,1,1.88-.8,2.52-2.86,1-4.85,1.15-7.42-1.38-4-4-10.36-4.83-15.84-3l-1.78,2.94a16,16,0,0,1,7.16-1.88,15.45,15.45,0,0,1,10.52,4.38c.95.9,1.08,1.54-.19,2.23a6.89,6.89,0,0,0-1.62,1.27c-1.4,1.47-2.47,1.6-4.34.24-2.95-2.15-6.27-1.9-9.42.17-.62.4-1.18,1.61-2.25.81s-2-1.44-2.89-2.23l-1.22,2a26.16,26.16,0,0,1,5.19,5c1.05,1.32,1.46,2-.74,2.76-2.86,1-4.68.88-7.18-1.32-.26-.22-.52-.41-.78-.62l-1,1.62a15.9,15.9,0,0,1,1.53,1.3c1,.95,1.28,1.72-.24,2.37a.67.67,0,0,0-.25.16c-1.39,1.57-2.86,2.34-4.53,1.94l-1,1.7a3.56,3.56,0,0,1,.29.7c.3,1-1.18,2.52-2.77,3.38l-2.71,4.48c7.47.58,13.59,3.53,18.14,9.67,1.06,1.43,1,2-.79,2.26a1.3,1.3,0,0,0-.58.14c-2.68,1.48-4.44.76-6.89-1.31a16.68,16.68,0,0,0-14.09-3.83L375,159.71a17.24,17.24,0,0,1,5.65-.92,14.48,14.48,0,0,1,9.82,4.39c1.07,1.07,1,1.71-.26,2.45a7.73,7.73,0,0,0-1.85,1.47c-1.09,1.2-1.9,1.45-3.37.2-2.75-2.33-6.77-2.72-9.32-.52-2.11,1.83-3.23,1.19-4.85-.17l-1.14,1.88a20.42,20.42,0,0,1,5.12,4.91l.95,1.34c-.12.77-.62.83-1.09,1a16.64,16.64,0,0,0-3.09,1c-1.39.72-2.2.37-3.26-.74a17.59,17.59,0,0,0-2.06-1.8l-1,1.64c.21.17.43.34.63.52a25.28,25.28,0,0,1,1.79,2c-1.44,1.13-2.85,2.14-4.13,3.28-.74.65-1.16.43-1.78,0l-1.14,1.88a3.79,3.79,0,0,1,.21.65,2,2,0,0,1-.54,1.48h2.2a23.28,23.28,0,0,1,31.05-4.75l1.09-1.84a14.85,14.85,0,0,1-1.5-1.36c-.45-.47.55-1.14,1-1.59a15,15,0,0,1,3.77-2.61l1.64-2.76a17.08,17.08,0,0,0-5.39,2.75c-4.19,3.23-4.19,3.23-9.54.92a22.87,22.87,0,0,1,19.29-11l1.24-2.09a3.24,3.24,0,0,1-.93.16c-1.63,0-4.56-2.55-4.67-4-.09-1.19,2.93-3,5-2.79,1.37.15,2.89.36,3.82,1.3l.92-1.55c-3.79-2.44-6.6-2.39-10.15.36-1.44,1.12-2,.27-2.93-.47-3.68-3.06-3.63-3.64.6-6.13a15.47,15.47,0,0,1,15.93.41l1-1.65A16.76,16.76,0,0,0,392.52,149c-1.77,1.77-5.94,1.57-7.37-.36-.47-.63,0-1,.35-1.55,5.16-8.3,18.48-12.19,27.43-8.11a34.75,34.75,0,0,1,4.18,2.21l1.37-2.32c-.86-.93-.39-1.33,1.54-2.93l.35-.26,2.11-3.55a18.18,18.18,0,0,0-5.05,3.45c-.66.64-1.08,1.93-2.22,1.66a25,25,0,0,1-5.32-1.77c-.95-.46.06-1.18.41-1.65a23.24,23.24,0,0,1,16.93-9.7l.64-1.07.59,1h.72c7.95.39,14.41,3.33,19.17,9.75,1,1.42,1,2-.8,2.25a1.59,1.59,0,0,0-.57.14c-2.68,1.48-4.44.76-6.9-1.3a17.43,17.43,0,0,0-7.33-3.72l1.37,2.26a15.24,15.24,0,0,1,5.79,3.65c1.08,1.07,1.06,1.71-.25,2.45a6.79,6.79,0,0,0-1.27.93l1,1.71a23.56,23.56,0,0,1,30.36,1.17l-4.17-7c-1.81.61-6,.29-6.78-.73-.57-.78.15-1.26.55-1.77a30.75,30.75,0,0,1,2.87-3.17l-1.08-1.81c-.71.55-1.14.23-1.83-.25-4.1-2.85-7-3-10.75-.05-1.45,1.13-2,.28-2.94-.47-3.67-3.06-3.62-3.64.61-6.13a15.38,15.38,0,0,1,9.77-2l-1.28-2.17a16.81,16.81,0,0,0-12.75,5c-1.77,1.77-6,1.58-7.37-.35-.47-.64,0-1.06.35-1.56,3.19-5.13,9.49-8.56,15.95-9.48l-1.9-3.21-.15.06c-2.86,1-4.68.89-7.19-1.31-6.94-6.1-16.52-5.38-23,1.12-1.05,1.06-6.56.81-7.43-.38-.58-.78.15-1.25.55-1.76,4.85-6.19,11.11-9.61,19.29-9.76a23.76,23.76,0,0,1,13.39,4.43l-1.7-2.85.53-.88c-.33-.4.3-.92.79-1.34l2.56-4.31a17,17,0,0,0-2.28,1.47c-4.19,3.23-4.19,3.23-9.54.91a22.7,22.7,0,0,1,16.84-10.84l1.47-2.49c-1.54-.76-3.3-2.52-3.38-3.68s2.92-3,5-2.78a12.48,12.48,0,0,1,2,.34l.93-1.58c-2.95-1.37-5.41-1-8.38,1.35-1.45,1.12-2,.27-2.94-.47-3.67-3.06-3.62-3.65.61-6.13a15.55,15.55,0,0,1,14.17-.58l1-1.68a16.77,16.77,0,0,0-19.49,3.17c-1.77,1.77-6,1.58-7.37-.35-.47-.63,0-1.06.35-1.55,5.16-8.31,18.48-12.19,27.43-8.12.83.38,1.63.78,2.42,1.21l3.93-6.62a19.22,19.22,0,0,0-2.32,1.9c-.67.64-1.08,1.92-2.22,1.66a26.37,26.37,0,0,1-5.32-1.77c-1-.46.06-1.18.41-1.65a23.11,23.11,0,0,1,15-9.43l2.89-4.87c-1.52-.85-2.9-2.31-2.6-3.27.68-2.14,2.72-2.74,4.78-2.73a9.91,9.91,0,0,1,1.33.09l1-1.62c-2.58-1.24-5.08-.37-7.41,1.38-3.07,2.31-4.08-1.15-5.58-2.23-1.73-1.24.52-2.22,1.39-2.94A14,14,0,0,1,479.14,24a17.22,17.22,0,0,1,6.73,1.21l1-1.73c-6.32-3-13.7-1.57-19,3.76-1.05,1.06-6.56.81-7.43-.38-.58-.78.15-1.25.55-1.76,4.85-6.19,11.11-9.61,19.29-9.76a24.61,24.61,0,0,1,10,2.39l3.6-6.07-.28.2c-4.19,3.23-4.19,3.23-9.54.91a24.76,24.76,0,0,1,2-2.78Zm-77.5,68.87c-1.73,0-5.1-2.92-4.71-4.27.72-2.57,3.08-2.38,5.05-2.39s4.08.61,4.66,2.75C411.63,76.34,408.06,78.9,406.26,78.87Zm-26.45,95.26c-1.8,0-5.16-2.46-4.78-3.83.63-2.29,2.82-2.88,4.92-2.85s4.11.53,4.81,2.7C385.21,171.58,381.82,174.14,379.81,174.13Zm26.37-40.87c-1.73,0-5.09-2.92-4.71-4.27.72-2.57,3.09-2.38,5.06-2.39s4.07.61,4.65,2.75c.38,1.38-3.18,3.94-5,3.91Zm47.82-5c1.92.22,4.14.51,4.61,2.83.31,1.52-3.05,4-4.92,4-1.63,0-4.56-2.55-4.67-4-.09-1.18,2.92-3,5-2.79Zm-23.21-8.11c-1.92,0-5.16-2.52-4.71-3.94.68-2.14,2.72-2.74,4.78-2.73s4.16.4,4.83,2.62c.44,1.5-2.93,4.09-4.9,4.09Zm-9.24-12a14,14,0,0,1,8.38-3.34,15.4,15.4,0,0,1,11.52,4.41c1,1,1.28,1.73-.25,2.37a.78.78,0,0,0-.24.16c-1.94,2.18-4,2.83-6.59.93-3-2.24-5.93-1.39-8.63.64-3.07,2.31-4.08-1.15-5.58-2.23-1.73-1.19.52-2.17,1.39-2.89ZM430,93.45c-1.8,0-5.17-2.47-4.79-3.83.64-2.3,2.83-2.88,4.93-2.85s4.11.52,4.81,2.69C435.42,90.89,432,93.46,430,93.45Zm10.43-8.51a8,8,0,0,0-1.85,1.47c-1.09,1.21-1.91,1.45-3.37.21-2.75-2.34-6.78-2.73-9.32-.52-2.2,1.9-3.32,1.13-5.06-.34-2.6-2.21-2.71-2.13,0-4.33a16,16,0,0,1,10.06-3.33,14.5,14.5,0,0,1,9.82,4.39c1.07,1.07,1.05,1.71-.26,2.45Zm14.94-32.52c-1.73,0-5.09-2.92-4.71-4.28.72-2.57,3.09-2.38,5.06-2.39s4.07.61,4.65,2.75c.4,1.38-3.17,3.94-5,3.92Z"/><path class="cls-4" d="M10,185.56V162.75H27.56V32.82H10V10H140.24a3.6,3.6,0,0,1,3.55,3.55V182a3.6,3.6,0,0,1-3.55,3.55Zm41.29-22.81H122.1V32.82H51.29Z"/><path class="cls-4" d="M198,185.56a3.61,3.61,0,0,1-3.56-3.55V13.55A3.61,3.61,0,0,1,198,10H307.16a3.6,3.6,0,0,1,3.55,3.55V32.82H218.16V87.6h92.55v20.3H218.16v54.78h92.55v19.69a3.5,3.5,0,0,1-.25,1,3.6,3.6,0,0,1-.33.61,4,4,0,0,1-.71.78,3.52,3.52,0,0,1-2.24.81Z"/><polygon class="cls-4" points="465.79 185.56 427.86 123 390.74 185.56 359.34 185.56 412.57 97.78 359.34 10 390.74 10 427.86 72.57 465.79 10 494.88 10 442.81 97.78 494.88 185.56 465.79 185.56"/><path class="cls-5" d="M595.74,53.39c-.67.63-1.08,1.92-2.22,1.65a27.41,27.41,0,0,1-4.61-1.45V56.5a17.55,17.55,0,0,1,2.64.92c4,1.83,7.62,4.11,10.24,7.75.35.47.68,1,1,1.34-.13.76-.63.82-1.1,1a16.88,16.88,0,0,0-3.09,1c-1.39.72-2.2.37-3.26-.74a17.19,17.19,0,0,0-6.39-4.2v2.1a12.9,12.9,0,0,1,4,2.46,22,22,0,0,1,1.8,2c-1.45,1.14-2.85,2.14-4.14,3.29a1.11,1.11,0,0,1-1.56.15l-.06,0V78a23.29,23.29,0,0,1,30.81-6V66.67c-2.22,1.48-3.13,1.1-7.32-.72a22.85,22.85,0,0,1,7.32-7.48V53.63c-.43-.29-.86-.62-1.33-1A16.42,16.42,0,0,0,595.74,53.39Zm11.8,12.38c-1.81,0-5.17-2.47-4.79-3.83.64-2.3,2.82-2.88,4.93-2.85s4.11.52,4.8,2.69C612.94,63.21,609.54,65.78,607.54,65.77ZM618,57.26a7.49,7.49,0,0,0-1.84,1.47c-1.1,1.21-1.91,1.45-3.38.21-2.75-2.34-6.77-2.73-9.32-.52-2.2,1.9-3.32,1.13-5.06-.35-2.6-2.2-2.7-2.12,0-4.33a16.14,16.14,0,0,1,10.07-3.32,14.5,14.5,0,0,1,9.82,4.39C619.29,55.88,619.27,56.52,618,57.26Z"/><path class="cls-5" d="M595.48,80.55c-.87.87-4.73.85-6.57.16v1.8a23,23,0,0,1,12.93,8.62c1.11,1.49,1,1.88-.79,2.52-2.87,1-4.85,1.15-7.42-1.38a13.38,13.38,0,0,0-4.72-3V91.5a15.52,15.52,0,0,1,4.78,3.17c.95.9,1.08,1.54-.19,2.23a6.28,6.28,0,0,0-1.63,1.27c-1,1.06-1.86,1.42-3,1v4.48a23.36,23.36,0,0,1,17.42-8.06,25.53,25.53,0,0,1,13.39,4.15V93.89c-.21.19-.43.37-.63.57-1.77,1.77-6,1.57-7.37-.36-.47-.63,0-1,.35-1.55a19.74,19.74,0,0,1,7.65-6.8V80.39a10.25,10.25,0,0,1-1.28-1C611.5,73.33,601.91,74.05,595.48,80.55Zm12.06,12.09c-1.91,0-5.15-2.52-4.7-3.94.68-2.14,2.72-2.74,4.77-2.73s4.17.4,4.83,2.62C612.88,90.05,609.51,92.64,607.54,92.64ZM618,84.09a.82.82,0,0,0-.25.16c-1.93,2.18-4,2.83-6.58.92-3-2.23-5.94-1.38-8.63.65-3.07,2.31-4.08-1.15-5.58-2.23-1.73-1.24.52-2.22,1.39-2.94a14,14,0,0,1,8.37-3.34,15.4,15.4,0,0,1,11.52,4.41C619.2,82.67,619.48,83.45,618,84.09Z"/><path class="cls-5" d="M605.54,150.12a25.25,25.25,0,0,1,14.18,4.7v-2.9a1.32,1.32,0,0,1,0-1.83v-2.43a15.4,15.4,0,0,0-1.42,1.26c-1.77,1.77-5.95,1.58-7.37-.35-.47-.63,0-1.06.35-1.55a20,20,0,0,1,8.44-7.22v-5.41a10.59,10.59,0,0,1-1.68-1.22c-6.94-6.1-16.52-5.38-23,1.12-.8.82-4.22.85-6.17.3v1.77a22.89,22.89,0,0,1,12.54,8.51c1.1,1.5,1,1.88-.8,2.53-2.86,1-4.85,1.14-7.42-1.38a12.94,12.94,0,0,0-4.32-2.79v2.26a15.65,15.65,0,0,1,4.38,3c1,.9,1.08,1.55-.19,2.23a7.1,7.1,0,0,0-1.62,1.27c-.89.94-1.65,1.33-2.57,1.14v4.21A23.41,23.41,0,0,1,605.54,150.12Zm1.61-3.74c-1.92,0-5.16-2.51-4.7-3.94.67-2.14,2.71-2.74,4.77-2.72s4.16.39,4.83,2.62c.44,1.46-2.93,4-4.9,4Zm-5-6.82c-3.07,2.32-4.08-1.15-5.58-2.22-1.73-1.25.52-2.22,1.39-3a14.06,14.06,0,0,1,8.38-3.33,15.39,15.39,0,0,1,11.52,4.4c1,1,1.28,1.73-.25,2.37a.81.81,0,0,0-.24.17c-1.94,2.18-4,2.83-6.59.92-3.06-2.18-6-1.33-8.68.69Z"/><path class="cls-5" d="M528.07,26.28l-.45.14v3.11c5.42-1.9,11.54-2.05,16.39.16a32.85,32.85,0,0,1,5.54,3.13h6.37a5.26,5.26,0,0,1,4.21-1.47,5.38,5.38,0,0,1,4.11,1.47h5.15a23.5,23.5,0,0,1,33.13,2.63q.45.52.87,1.08c1.1,1.5,1,1.88-.8,2.53-2.87,1-4.85,1.14-7.42-1.38a13.59,13.59,0,0,0-6.27-3.43v2.16a15.39,15.39,0,0,1,6.33,3.71c1,.9,1.08,1.55-.19,2.23a7.16,7.16,0,0,0-1.63,1.27c-1.4,1.47-2.46,1.6-4.33.24l-.18-.11V46a3.47,3.47,0,0,1,.58,1.17,1.77,1.77,0,0,1-.58,1.45V51.2a23.42,23.42,0,0,1,18.58-9.46,26,26,0,0,1,12.23,3.41V41c-2,1.3-5.55,1-6.85-.77-.46-.64,0-1.06.35-1.55,5.17-8.31,18.48-12.19,27.43-8.12a35.24,35.24,0,0,1,4.25,2.26h8.33a7.14,7.14,0,0,1,2.78-.47,7.86,7.86,0,0,1,2.67.47H662a4.64,4.64,0,0,1-.9-.62c-2.75-2.33-6.78-2.72-9.32-.52-2.2,1.91-3.32,1.14-5.06-.34-2.6-2.21-2.7-2.12,0-4.33a16,16,0,0,1,10.07-3.32,14.48,14.48,0,0,1,9.82,4.39c1.07,1.07,1,1.71-.26,2.45a7.34,7.34,0,0,0-1.9,1.47,3.6,3.6,0,0,1-1,.82h3A23,23,0,0,1,679,28.24V25.85c-1.53-.78-3.23-2.5-3.31-3.64-.07-.89,1.6-2.13,3.31-2.61v-2a10.12,10.12,0,0,0-3.74,2c-1.44,1.13-2,.27-2.93-.47-3.68-3.06-3.63-3.64.6-6.13A15.07,15.07,0,0,1,679,11V10h-4.49a17.13,17.13,0,0,0-5.9,3.85c-1.77,1.77-5.94,1.57-7.37-.35-.47-.64,0-1.06.35-1.56A15.73,15.73,0,0,1,663,10h-2.45a5.91,5.91,0,0,1-3.13,1.31A5.69,5.69,0,0,1,654.36,10h-2.49c.94,1.32.76,1.71-.93,2.32-2.87,1-4.86,1.15-7.43-1.38a13.57,13.57,0,0,0-1.07-.94h-4.26a15.39,15.39,0,0,1,5.4,3.39c.95.9,1.07,1.54-.19,2.23a6.51,6.51,0,0,0-1.63,1.27c-1.4,1.47-2.46,1.6-4.34.24-2.94-2.15-6.27-1.9-9.42.17-.61.4-1.18,1.61-2.24.81a32.67,32.67,0,0,1-4.09-3.33c-.44-.47.55-1.14,1-1.59A14.93,14.93,0,0,1,627.85,10h-4.32c-.27.19-.54.37-.81.57-4.19,3.23-4.19,3.23-9.53.92.31-.52.64-1,1-1.49h-2.66a4.42,4.42,0,0,1-6.26,0H602.9c.15.19.31.37.45.57a15.57,15.57,0,0,0,1,1.34c-.12.77-.63.83-1.1,1a17.68,17.68,0,0,0-3.09,1c-1.39.72-2.2.37-3.26-.74a17.31,17.31,0,0,0-4-3.12h-6.61a14.21,14.21,0,0,1,8.21,3.48c.58.53,1.06,1.15,1.8,2-1.45,1.14-2.85,2.15-4.14,3.29-.81.72-1.24.37-2-.14-4.1-2.86-7-2.95-10.75,0-1.45,1.13-2,.27-2.94-.47-3.67-3.06-3.62-3.64.61-6.13a14.89,14.89,0,0,1,6.11-2h-6.71a17,17,0,0,0-3.78,2.85c-1.77,1.77-6,1.57-7.37-.35-.47-.64,0-1.06.35-1.56.2-.32.43-.63.66-.94h-4.09a5.88,5.88,0,0,1-3,1.19A5.66,5.66,0,0,1,556.37,10h-2.56c.84,1.22.62,1.61-1,2.2-2.87,1.05-4.85,1.15-7.42-1.38-.3-.29-.62-.56-.94-.82h-4.06a15.75,15.75,0,0,1,5.06,3.26c1,.91,1.07,1.55-.19,2.24a6.28,6.28,0,0,0-1.63,1.27c-1.4,1.46-2.46,1.6-4.34.23-2.94-2.14-6.27-1.89-9.42.18-.61.4-1.17,1.6-2.23.81v4.13c.4.45.81.91,1.19,1.4C529.87,24.83,530.28,25.49,528.07,26.28Zm42.35,3.25A7.73,7.73,0,0,0,568.57,31c-1.1,1.2-1.91,1.45-3.37.2-2.76-2.33-6.78-2.72-9.33-.52-2.19,1.91-3.31,1.14-5-.34-2.61-2.21-2.71-2.12,0-4.33a16,16,0,0,1,10.07-3.32,14.44,14.44,0,0,1,9.82,4.39C571.75,28.15,571.73,28.79,570.42,29.53ZM609.09,38c-1.91,0-5.15-2.51-4.7-3.94.68-2.14,2.72-2.74,4.77-2.73s4.17.4,4.83,2.62C614.43,35.45,611.06,38,609.09,38Zm10.42-8.55a.85.85,0,0,0-.25.17c-1.93,2.17-4,2.82-6.58.92-3-2.24-5.94-1.39-8.63.64-3,2.36-4-1.11-5.58-2.18-1.73-1.25.52-2.22,1.39-2.95a14,14,0,0,1,8.37-3.33,15.37,15.37,0,0,1,11.53,4.4c1,.95,1.24,1.73-.25,2.37ZM655.83,15c7.94.39,14.4,3.33,19.16,9.75,1.06,1.42,1,2-.79,2.25a1.65,1.65,0,0,0-.58.14c-2.68,1.48-4.44.76-6.89-1.3a16.42,16.42,0,0,0-22.65.76c-.67.64-1.08,1.92-2.23,1.66a25.48,25.48,0,0,1-5.31-1.77c-1-.46.06-1.18.41-1.65a23.43,23.43,0,0,1,18.88-9.8Zm-27.72,5.06c.73-2.57,3.09-2.38,5.06-2.39s4.08.61,4.66,2.75c.37,1.38-3.2,3.94-5,3.91s-5.1-2.88-4.72-4.23Zm-38,3.7c4.86-6.19,11.12-9.61,19.3-9.75a23.73,23.73,0,0,1,18.47,9.33c1.06,1.31,1.46,2-.74,2.76-2.86,1-4.68.88-7.18-1.32-6.94-6.1-16.53-5.38-23,1.12-1,1.06-6.56.81-7.44-.38-.52-.73.22-1.21.62-1.72Zm-5.38-5.39c1.92.22,4.14.51,4.61,2.83.31,1.52-3,4-4.92,4-1.63,0-4.56-2.55-4.67-4.05-.06-1.16,3-3,5-2.74ZM541,23.85A23.42,23.42,0,0,1,559.91,14c8,.39,14.41,3.33,19.17,9.75,1,1.42,1,2-.8,2.25a1.59,1.59,0,0,0-.57.14c-2.68,1.48-4.44.76-6.9-1.3a16.42,16.42,0,0,0-22.65.76c-.66.64-1.08,1.92-2.22,1.66a25,25,0,0,1-5.32-1.77c-.92-.42.09-1.14.44-1.61ZM530,20c.73-2.57,3.09-2.38,5.06-2.39s4.08.61,4.66,2.75c.37,1.38-3.2,3.94-5,3.91S529.58,21.34,530,20Z"/><path class="cls-5" d="M529.35,10h-1.73v.84A13.8,13.8,0,0,1,529.35,10Z"/><path class="cls-5" d="M607.49,122.4a23.78,23.78,0,0,1,12.23,3.65v-2.94c-.16-.17-.12-.36,0-.57v-2.82c-3.17,2.39-3.63,2.21-8.48.11a22.77,22.77,0,0,1,8.48-8.17v-3.49a11,11,0,0,1-2.49-1.68,16.43,16.43,0,0,0-22.65.77c-.66.64-1.08,1.92-2.22,1.66a31.65,31.65,0,0,1-3.45-1v2.44a15.1,15.1,0,0,1,2.25.81c4,1.83,7.62,4.11,10.24,7.74l1,1.34c-.12.77-.62.83-1.1,1a16.88,16.88,0,0,0-3.09,1c-1.38.72-2.19.37-3.26-.74a17.13,17.13,0,0,0-6-4v2.13a13,13,0,0,1,3.57,2.28,25.28,25.28,0,0,1,1.79,2c-1.44,1.13-2.85,2.14-4.13,3.28-.5.44-.86.48-1.23.33v3.89A23.7,23.7,0,0,1,607.49,122.4ZM597.21,112c-2.6-2.21-2.71-2.13,0-4.33a16,16,0,0,1,10.06-3.32,14.44,14.44,0,0,1,9.82,4.39c1.08,1.07,1.06,1.71-.25,2.45a7.73,7.73,0,0,0-1.85,1.47c-1.09,1.2-1.91,1.45-3.37.2-2.75-2.33-6.78-2.73-9.32-.52C600.07,114.19,599,113.43,597.21,112Zm4.38,3.86c.64-2.29,2.83-2.88,4.93-2.85s4.11.52,4.81,2.7c.45,1.43-2.94,4-5,4-1.75-.07-5.12-2.53-4.74-3.9Z"/><path class="cls-5" d="M604.89,185.13a19.32,19.32,0,0,1,4.22.43h5.27a16,16,0,0,0-17.16,0h4.83A12.43,12.43,0,0,1,604.89,185.13Z"/><path class="cls-5" d="M619.72,181.07v-2.73c-.27-.25-.54-.49-.79-.76s.29-.94.79-1.37v-2.63c-3.92,3-4.05,3-9.27.71a22.72,22.72,0,0,1,9.27-8.57v-2.81a8.84,8.84,0,0,1-3.28-1.95,16.43,16.43,0,0,0-22.65.77c-.66.64-1.08,1.92-2.22,1.65-.89-.2-1.78-.44-2.66-.72v2.25c.28.11.58.2.85.33,4,1.83,7.62,4.11,10.24,7.74l1,1.34c-.12.77-.62.83-1.09,1a16.64,16.64,0,0,0-3.09,1c-1.39.72-2.2.37-3.26-.74a17.3,17.3,0,0,0-4.6-3.41v2.2a12.36,12.36,0,0,1,2.17,1.57,25.28,25.28,0,0,1,1.79,2c-1.38,1.08-2.72,2.06-4,3.14v2.82a23.21,23.21,0,0,1,30.81-2.74Zm-23.3-14.65c-2.6-2.21-2.71-2.13,0-4.33a16,16,0,0,1,10.07-3.32,14.45,14.45,0,0,1,9.82,4.38c1.08,1.08,1.06,1.71-.25,2.45a8,8,0,0,0-1.85,1.48c-1.1,1.2-1.91,1.44-3.37.2-2.76-2.34-6.78-2.73-9.33-.52-2.23,1.9-3.35,1.13-5.09-.34Zm4.38,3.86c.64-2.29,2.83-2.88,4.93-2.85s4.11.52,4.8,2.69c.46,1.43-2.94,4-4.94,4-1.8,0-5.17-2.48-4.79-3.84Z"/><polygon class="cls-4" points="588.91 185.56 588.91 32.82 527.62 32.82 527.62 10 678.97 10 678.97 32.82 619.72 32.82 619.72 185.56 588.91 185.56"/><path class="cls-5" d="M744.32,159.65v-2.44a4.94,4.94,0,0,0-.85-.86c-1.44-1-.13-1.88.85-2.55v-2.46a20.76,20.76,0,0,0-2.29,2c-1,1.06-6.56.81-7.43-.38-.58-.77.15-1.25.55-1.76a25.34,25.34,0,0,1,9.17-7.52v-2.13c-.94.23-1.62-.16-2.47-1a16.77,16.77,0,0,0-21.21-2.62v2.27l1.38-.84c5.42-3.18,13-2.52,17.41,1.55.57.53,1.05,1.15,1.79,2-1.45,1.14-2.85,2.15-4.14,3.29-.81.72-1.24.37-2-.14-4.1-2.86-7-2.95-10.75,0-1.45,1.13-2,.27-2.93-.47-.29-.23-.54-.45-.78-.66v2.59a25.09,25.09,0,0,1,3.47,3.81c1.06,1.42,1,2-.8,2.25a1.59,1.59,0,0,0-.57.14,6,6,0,0,1-2.1.73v2A23.75,23.75,0,0,1,744.32,159.65Zm-19.54-11.08c-.09-1.18,2.93-3,5-2.79s4.14.51,4.61,2.83c.31,1.52-3,4-4.92,4-1.65,0-4.58-2.54-4.69-4Z"/><path class="cls-5" d="M742.25,86.74a16.77,16.77,0,0,0-21.61-2.37v2.29c.48-.33,1.06-.69,1.78-1.11,5.41-3.19,13-2.53,17.4,1.55a22.13,22.13,0,0,1,1.79,2c-1.44,1.13-2.84,2.14-4.13,3.28-.81.73-1.24.37-2-.14-4.11-2.85-7-2.94-10.75,0-1.45,1.12-2,.27-2.94-.47l-1.17-1v2.58a25.43,25.43,0,0,1,3.87,4.16c1,1.42,1,2-.8,2.25a1.59,1.59,0,0,0-.57.14,5.54,5.54,0,0,1-2.5.77v2.16A23.65,23.65,0,0,1,746.88,108h2.86v-.19c.68-2.13,2.72-2.74,4.77-2.72s4.17.39,4.83,2.62a.71.71,0,0,1,0,.29h2.71c6.27-5.67,16.81-7.86,24.31-4.45a29.53,29.53,0,0,1,7.2,4.45h4.59c.86-1.7,2.78-2.17,4.64-2.14s3.7.45,4.57,2.14h3.95a23.45,23.45,0,0,1,25.47-4.33V101c-1.87,0-4-.34-4.52-1s.15-1.25.55-1.76a28.69,28.69,0,0,1,4-4.17V91.46c-.7.55-1.38,1.09-2,1.67-.81.72-1.24.37-2-.15-4.11-2.85-7-2.94-10.76,0-1.44,1.12-2,.27-2.93-.47-3-2.47-3.5-3.33-1.38-4.87H815a6,6,0,0,1-6.23,0H790.33c.3.55.11,1-.78,1.5a7.16,7.16,0,0,0-1.63,1.27c-1.4,1.47-2.47,1.6-4.34.24-3-2.15-6.27-1.9-9.42.17-.61.4-1.18,1.61-2.24.81a31.81,31.81,0,0,1-4.09-3.33c-.19-.2-.12-.43.06-.66H745.23C744,88.13,743.24,87.77,742.25,86.74Zm-12.4,12.14c-1.64,0-4.56-2.55-4.68-4-.09-1.19,2.93-3,5-2.79s4.14.5,4.61,2.83C735.08,96.38,731.71,98.89,729.85,98.88Zm35.06,4.23a.67.67,0,0,0-.25.16c-1.93,2.18-4,2.83-6.58.92-3-2.23-5.94-1.38-8.63.65-3.07,2.31-4.08-1.15-5.58-2.23-1.73-1.24.51-2.22,1.38-2.94a14,14,0,0,1,8.38-3.34,15.4,15.4,0,0,1,11.52,4.41C766.15,101.69,766.43,102.46,764.91,103.11Zm48.26.83a7.27,7.27,0,0,0-1.84,1.47c-1.1,1.2-1.91,1.45-3.38.2-2.75-2.33-6.77-2.73-9.32-.52-2.2,1.9-3.32,1.14-5.06-.34-2.6-2.21-2.7-2.13,0-4.33a16,16,0,0,1,10.07-3.32,14.44,14.44,0,0,1,9.82,4.39C814.5,102.56,814.48,103.2,813.17,103.94Zm14.35-11.11c1.91.22,4.14.5,4.61,2.83.3,1.51-3.06,4-4.93,4-1.63,0-4.56-2.55-4.67-4-.09-1.23,2.93-3.06,5-2.83ZM802.7,88.45c7.94.39,14.4,3.33,19.16,9.75,1.06,1.43,1,2-.79,2.26a1.3,1.3,0,0,0-.58.14c-2.67,1.48-4.44.76-6.89-1.31a16.43,16.43,0,0,0-22.65.77c-.67.64-1.08,1.92-2.22,1.66a25,25,0,0,1-5.32-1.77c-1-.46.06-1.18.41-1.65A23.49,23.49,0,0,1,802.7,88.45Zm-28.43,5.14c.72-2.56,3.09-2.37,5.06-2.39s4.07.62,4.65,2.76c.38,1.37-3.19,3.94-5,3.91S773.89,95,774.27,93.59Zm-1,3.41c1.05,1.32,1.46,2-.74,2.76-2.86,1-4.68.88-7.18-1.32-6.94-6.09-16.53-5.38-23,1.12-1.06,1.07-6.57.81-7.44-.37-.57-.78.15-1.26.55-1.76,4.85-6.19,11.12-9.62,19.29-9.76A23.71,23.71,0,0,1,773.31,97Z"/><path class="cls-5" d="M720.64,31v6.49a23.93,23.93,0,0,1,5.42,5.35c1.05,1.43,1,2-.8,2.25a1.42,1.42,0,0,0-.57.15,4.65,4.65,0,0,1-4.05.5v3.17a23.75,23.75,0,0,1,23.68,1V44.65c-.11.11-.23.2-.34.32-1.05,1.06-6.57.81-7.44-.38-.57-.78.15-1.25.55-1.76a26.39,26.39,0,0,1,7.23-6.5V32.82h.23a6.06,6.06,0,0,1-.75-.68A16.76,16.76,0,0,0,720.64,31ZM731.4,44.28c-1.63,0-4.56-2.55-4.68-4.05-.08-1.19,2.93-3,5-2.79s4.14.5,4.61,2.83C736.63,41.78,733.26,44.29,731.4,44.28Zm7.6-6.54c-.81.72-1.24.37-2-.15-4.1-2.85-7-2.94-10.75,0-1.45,1.12-2,.27-2.94-.47-3.68-3.06-3.62-3.64.61-6.13,5.42-3.19,13-2.52,17.4,1.55a23.49,23.49,0,0,1,1.8,2C741.72,35.59,740.32,36.6,739,37.74Z"/><path class="cls-5" d="M721.33,56.32l-.69.53v2.68c.23-.21.49-.42.67-.59a14.88,14.88,0,0,1,20.88.2c.95.9,1.07,1.54-.19,2.23a6.51,6.51,0,0,0-1.63,1.27c-1.4,1.47-2.46,1.6-4.34.24-2.94-2.15-6.27-1.9-9.42.17-.61.4-1.17,1.61-2.24.81a37.09,37.09,0,0,1-3.73-3v3.48a25.4,25.4,0,0,1,5.12,4.92c1.06,1.32,1.47,2-.74,2.76a6.67,6.67,0,0,1-4.38.38v4.44c5.76-2.42,12.57-2.82,17.86-.41a32,32,0,0,1,5.82,3.33V76.25c-1.31-1.16-1.35-1.51,0-2.69V71a19.6,19.6,0,0,0-1.63,1.39c-.67.64-1.08,1.93-2.22,1.66a25,25,0,0,1-5.32-1.77c-1-.46.06-1.17.41-1.65a23.83,23.83,0,0,1,8.76-7.43V58.3a7.9,7.9,0,0,1-2.19-1.61C736.79,51.45,727.44,51.62,721.33,56.32Zm10.11,13.82c-1.73,0-5.1-2.92-4.72-4.28.73-2.57,3.09-2.38,5.06-2.39s4.08.61,4.66,2.75C736.81,67.6,733.24,70.16,731.44,70.14Z"/><path class="cls-5" d="M738.11,130.19a30,30,0,0,1,6.21,3.64v-2.72l-.16-.14c-2.61-2.21-2.71-2.13,0-4.33l.2-.15v-2.43a18.63,18.63,0,0,0-2.79,2.22c-.66.64-1.08,1.92-2.22,1.66a26.37,26.37,0,0,1-5.32-1.77c-1-.46.06-1.18.41-1.65a23.65,23.65,0,0,1,9.92-8v-3.23a6.15,6.15,0,0,1-3.74-2c-5.1-5-13.85-5.07-19.94-1v2.47a14.85,14.85,0,0,1,20,1c1,.91,1.07,1.55-.19,2.24a6.28,6.28,0,0,0-1.63,1.27c-1.4,1.46-2.46,1.6-4.34.23-2.94-2.14-6.27-1.89-9.42.18-.61.4-1.17,1.6-2.24.8-.72-.54-1.46-1.07-2.18-1.63v2.59a26.41,26.41,0,0,1,4.33,4.32c1.06,1.32,1.46,2-.74,2.76a7.49,7.49,0,0,1-3.59.56v3.38C726.31,128.15,732.94,127.83,738.11,130.19Zm-12.94-9.73c.73-2.57,3.09-2.38,5.06-2.4s4.08.62,4.66,2.76c.37,1.38-3.2,3.94-5,3.91S724.79,121.81,725.17,120.46Z"/><path class="cls-5" d="M836.27,184a3.34,3.34,0,0,0,.58-1.6,24.91,24.91,0,0,1-5.31-1.77c-1-.46.06-1.17.41-1.64a25.15,25.15,0,0,1,4.92-5.07v-7.16c-.26-.22-.53-.45-.81-.72a13.45,13.45,0,0,0-5.94-3.36h-8.66a17.13,17.13,0,0,0-6.19,3c-4.19,3.23-4.19,3.23-9.53.92a23.66,23.66,0,0,1,3-3.9h-2.85c0,1.46-3.1,3.72-5,3.72s-5-2.34-4.8-3.72h-2.87a20.1,20.1,0,0,1,2.68,3,15.57,15.57,0,0,0,1,1.34c-.13.77-.63.83-1.1,1a16.88,16.88,0,0,0-3.09,1c-1.39.72-2.2.37-3.26-.74a16.79,16.79,0,0,0-23.73-.68l-.42.41c-1.77,1.77-6,1.58-7.37-.35-.47-.64,0-1.06.35-1.56a16.85,16.85,0,0,1,2.78-3.35h-2.38a6.81,6.81,0,0,1-4.53,2.72,6.5,6.5,0,0,1-4.43-2.72h-2.23l1,1.21c1.1,1.5,1,1.88-.8,2.53-2.87,1-4.85,1.14-7.42-1.38-5-4.9-13.47-5.08-19.54-1.25v2.42a14.82,14.82,0,0,1,19.6,1.27c1,.9,1.08,1.54-.19,2.23a7.1,7.1,0,0,0-1.62,1.27c-1.4,1.47-2.47,1.6-4.34.24-3-2.15-6.28-1.9-9.43.17-.61.4-1.17,1.61-2.24.81L720.73,171v2.72a26.8,26.8,0,0,1,3.33,3.49c1,1.32,1.46,2-.74,2.76a9.2,9.2,0,0,1-2.59.59V182a3.38,3.38,0,0,0,.53,1.8c5.2-1.62,10.94-1.64,15.54.45.9.41,1.77.84,2.62,1.3h4.19l-.15-.13c-2.61-2.21-2.71-2.12,0-4.33a16.14,16.14,0,0,1,10.07-3.32,14.5,14.5,0,0,1,9.82,4.39c1.08,1.07,1,1.71-.26,2.45a7.72,7.72,0,0,0-1.27.94h3.48a23.7,23.7,0,0,1,24.05,0h3.15a8.19,8.19,0,0,0-1.35-1.47c-1.73-1.25.52-2.22,1.39-2.94a14,14,0,0,1,8.37-3.34,15.35,15.35,0,0,1,11.52,4.4c1,1,1.28,1.73-.24,2.37a.85.85,0,0,0-.25.17,10.32,10.32,0,0,1-.81.81h5.65c6-2.87,13.36-3.48,19-.91h0A3.39,3.39,0,0,0,836.27,184Zm-21-15.68a14.88,14.88,0,0,1,20.88.2c.94.9,1.07,1.54-.19,2.23a7.16,7.16,0,0,0-1.63,1.27c-1.4,1.47-2.47,1.6-4.34.24-3-2.15-6.27-1.9-9.42.17-.61.4-1.18,1.61-2.24.81a32.67,32.67,0,0,1-4.09-3.33c-.47-.51.53-1.18,1-1.63ZM769.57,167c5.42-3.19,12.95-2.53,17.4,1.54a25.15,25.15,0,0,1,1.8,2c-1.45,1.13-2.85,2.14-4.14,3.28-.81.72-1.24.37-2-.14-4.1-2.85-7-2.94-10.75,0-1.45,1.12-2,.27-2.94-.47C765.28,170.1,765.34,169.51,769.57,167Zm-44.79,7.17c.72-2.56,3.08-2.37,5.06-2.39s4.07.61,4.65,2.75c.37,1.38-3.19,3.94-5,3.92s-5.09-2.89-4.71-4.25Zm46.08,6.94a1.59,1.59,0,0,0-.57.14c-2.68,1.48-4.44.76-6.9-1.3a16.43,16.43,0,0,0-22.65.76c-.66.64-1.08,1.93-2.22,1.66a25,25,0,0,1-5.32-1.77c-1-.46.06-1.17.41-1.64a23.43,23.43,0,0,1,18.88-9.85c8,.39,14.41,3.33,19.17,9.75,1.05,1.45,1,2-.8,2.28Zm6.14-.78c-1.63,0-4.56-2.56-4.68-4.06-.08-1.18,2.93-3,5-2.79s4.14.51,4.61,2.83c.3,1.55-3.07,4.06-4.93,4.05Zm42.72.88c-2.86,1-4.68.88-7.18-1.32-6.94-6.1-16.53-5.38-23,1.12-1,1.06-6.57.81-7.44-.37-.57-.78.15-1.26.55-1.77,4.85-6.19,11.12-9.61,19.29-9.75a23.73,23.73,0,0,1,18.48,9.33c1.09,1.35,1.5,2-.7,2.79Zm5.65-1.76c-1.72,0-5.09-2.92-4.71-4.28.72-2.56,3.09-2.37,5.06-2.39s4.07.61,4.66,2.75c.37,1.41-3.2,4-5,3.95Z"/><path class="cls-5" d="M797.7,185.56h7.37C802.52,183.76,800,184.15,797.7,185.56Z"/><path class="cls-5" d="M815.59,32.82h2.85c.4-.27.87-.55,1.41-.87a15.41,15.41,0,0,1,16.59.87h.43V30.77A16.75,16.75,0,0,0,815.59,32.82Z"/><path class="cls-5" d="M748.7,185.56h8A7.12,7.12,0,0,0,748.7,185.56Z"/><path class="cls-5" d="M725.05,15.55c1.05,1.32,1.46,2-.74,2.76a7.44,7.44,0,0,1-3.67.55V23c6.05-3,13.64-3.75,19.41-1.13,4,1.83,7.62,4.12,10.24,7.75.35.47.68.95,1,1.34-.13.76-.63.82-1.1,1a19.06,19.06,0,0,0-3,.93H769c.23-.22.5-.44.69-.62a14.9,14.9,0,0,1,20.88.2,3.79,3.79,0,0,1,.38.42h17.51a3.88,3.88,0,0,1-.26-.31c-.47-.63,0-1,.35-1.55,5.16-8.3,18.48-12.19,27.43-8.12l.93.45V20.6a22.83,22.83,0,0,1-4.25-1.5c-1-.46.06-1.18.41-1.65a26,26,0,0,1,3.82-4.16,3.61,3.61,0,0,0-1.7-2.75,3.66,3.66,0,0,1-1-.42,3,3,0,0,0-.84-.12H823.9c-.54.48-1.1,1.39-2.06.67l-.9-.67h-4a25.49,25.49,0,0,1,6.23,5.67c1,1.32,1.46,2-.74,2.76-2.86,1-4.68.88-7.19-1.32-6.93-6.09-16.52-5.38-23,1.12-1,1.07-6.56.81-7.43-.37-.57-.78.15-1.26.55-1.76A26.42,26.42,0,0,1,792,10h-3.44c-.41.33-.83.66-1.22,1-.81.73-1.24.37-2-.14-.47-.32-.92-.61-1.36-.86H775.8c-.38.24-.77.51-1.17.82-1.44,1.12-2,.27-2.93-.47l-.41-.35h-3.41a23.43,23.43,0,0,1,6.51,6.08c1.06,1.42,1,2-.79,2.25a1.65,1.65,0,0,0-.58.14c-2.67,1.48-4.44.77-6.89-1.3a16.43,16.43,0,0,0-22.65.77c-.67.64-1.08,1.92-2.22,1.65a25.54,25.54,0,0,1-5.32-1.76c-1-.46.06-1.18.41-1.65A24.44,24.44,0,0,1,742.87,10h-5.19a2.16,2.16,0,0,1-1.92,0h-4A3.68,3.68,0,0,1,735,12.63c.38,1.38-3.19,3.94-5,3.92s-5.09-2.92-4.71-4.28A3,3,0,0,1,727.84,10h-3.29c-.44.43-.93.82-1.66.27h0a3.63,3.63,0,0,0-1.66,1.36A27.23,27.23,0,0,1,725.05,15.55Zm99.14-2.88c.73-2.57,3.09-2.38,5.06-2.39s4.08.61,4.66,2.75c.37,1.38-3.2,3.94-5,3.91S823.81,14,824.19,12.67ZM755.28,30.32c-1.81,0-5.17-2.47-4.79-3.83.64-2.3,2.82-2.88,4.92-2.85s4.12.52,4.81,2.69C760.68,27.76,757.28,30.33,755.28,30.32Zm49.1,0c-1.92,0-5.16-2.52-4.7-3.95.68-2.13,2.71-2.74,4.77-2.72s4.16.39,4.83,2.62c.44,1.47-2.93,4.05-4.9,4.06Zm-9.24-12A14,14,0,0,1,803.52,15,15.4,15.4,0,0,1,815,19.41c1,.95,1.28,1.72-.25,2.37a.63.63,0,0,0-.24.16c-1.93,2.18-4,2.83-6.59.92-3-2.23-5.93-1.38-8.62.65-3.07,2.31-4.08-1.15-5.59-2.23-1.71-1.28.56-2.22,1.43-2.94ZM775.06,13.5c-.09-1.19,2.93-3,5-2.79s4.14.5,4.61,2.83c.3,1.51-3.06,4-4.93,4C778.1,17.54,775.17,15,775.06,13.5Zm23.62,15.31c1.11,1.5,1,1.88-.79,2.53C795,32.39,793,32.49,790.46,30c-5.34-5.24-14.69-5.08-20.79-.37-4.19,3.23-4.19,3.23-9.53.91C768.89,16.15,789.23,16,798.68,28.81ZM746.07,18.3A16,16,0,0,1,756.14,15,14.46,14.46,0,0,1,766,19.36c1.07,1.08,1,1.71-.26,2.45a7.68,7.68,0,0,0-1.84,1.47c-1.1,1.21-1.91,1.45-3.38.21-2.75-2.34-6.77-2.73-9.32-.52-2.2,1.9-3.32,1.13-5.06-.34C743.5,20.42,743.4,20.5,746.07,18.3Z"/><path class="cls-4" d="M724.2,185.65a3.61,3.61,0,0,1-3.56-3.55V13.64a3.61,3.61,0,0,1,3.56-3.55H833.32a3.59,3.59,0,0,1,3.55,3.55V32.9H744.32V87.69h92.55V108H744.32v54.78h92.55v19.67a3.88,3.88,0,0,1-.26,1,3.51,3.51,0,0,1-.33.6,3.82,3.82,0,0,1-.71.79,3.52,3.52,0,0,1-2.24.81Z"/><path class="cls-5" d="M992.81,155.29,991,152.46h-.23c-1.8,0-5.17-2.47-4.79-3.83a3.51,3.51,0,0,1,1.27-1.91l-.9-1.37c-2,1.58-3.09.82-4.75-.59-2.6-2.21-2.71-2.12,0-4.33a10,10,0,0,1,1.07-.77L981.5,138a17.65,17.65,0,0,0-2.57,2.07c-.66.64-1.08,1.93-2.22,1.66a25,25,0,0,1-5.32-1.77c-.95-.46.06-1.17.41-1.65a24.89,24.89,0,0,1,6.06-5.88l-1.33-2c-1.36,1.37-2.42,1.48-4.25.15-2.95-2.15-6.27-1.9-9.42.17-.61.4-1.18,1.61-2.25.81-.73-.56-1.49-1.1-2.22-1.67l8.2,12.52a19.92,19.92,0,0,1,8.92,1.6c4,1.83,7.62,4.11,10.24,7.74l1,1.35c-.12.76-.62.82-1.1,1a16.88,16.88,0,0,0-3.09,1c-1.38.71-2.19.37-3.26-.74a17,17,0,0,0-8-4.7c.59.89,1.17,1.78,1.75,2.67a13.09,13.09,0,0,1,3.78,2.39c.57.52,1,1.14,1.79,2L976.8,158c.38.57.75,1.14,1.12,1.71a23.66,23.66,0,0,1,13.92-4.49Zm-25.13-17.46c-1.73,0-5.09-2.92-4.71-4.28.72-2.56,3.09-2.38,5.06-2.39s4.07.61,4.65,2.75c.38,1.38-3.19,3.94-5,3.92Z"/><path class="cls-5" d="M911.19,42.4c-3.11,2.4-3.92,3-6.3,2.23v2.83a24.16,24.16,0,0,1,10.73,7.89c1,1.32,1.46,2-.74,2.76-2.86,1-4.68.88-7.19-1.32a17.19,17.19,0,0,0-2.8-2v2.28a16.56,16.56,0,0,1,2.57,2c1,1,1.28,1.73-.25,2.38a.56.56,0,0,0-.24.16,6.7,6.7,0,0,1-2.08,1.66v3c6.34-5.13,16.3-7,23.47-3.72l.24.12v-3a22.8,22.8,0,0,1-3.6-1.32c-1-.47.06-1.18.41-1.65a26.5,26.5,0,0,1,3.19-3.59V49.83c-.78.21-1.6-.06-2.71-.87-2.95-2.15-6.28-1.9-9.43.17-.61.4-1.17,1.61-2.24.81a32.58,32.58,0,0,1-4.08-3.33c-.45-.47.55-1.14,1-1.59a15.4,15.4,0,0,1,10.35-4.18,15.91,15.91,0,0,1,7.08,1.86V40.39A17.07,17.07,0,0,0,911.19,42.4Zm5.39,9.54c.72-2.56,3.08-2.37,5.06-2.39s4.07.62,4.65,2.76c.38,1.37-3.19,3.93-5,3.91S916.2,53.3,916.58,51.94Z"/><path class="cls-5" d="M1004.31,172.86l-1.7-2.6a2.74,2.74,0,0,1-.7.41.56.56,0,0,0-.24.16c-1.94,2.18-4,2.83-6.59.92-3-2.23-5.94-1.38-8.63.65l-.16.11,1.09,1.66a5,5,0,0,1,4.19-1.62c2,0,4.16.39,4.83,2.62.44,1.46-2.93,4-4.9,4.05a3.23,3.23,0,0,1-.92-.16l1.9,2.9a25.9,25.9,0,0,1,12.42,3.6h3.43c-3.06-2.61-2.94-3.31.7-5.49l-1.06-1.62a17.29,17.29,0,0,0-2.87,2.31c-1.77,1.77-5.94,1.57-7.37-.36-.47-.63,0-1.05.35-1.55A19,19,0,0,1,1004.31,172.86Z"/><path class="cls-5" d="M910.48,179.45c5.42-3.19,12.95-2.53,17.4,1.54q.38.36.72.75V179.1a16.75,16.75,0,0,0-22.44,1.26,3.77,3.77,0,0,1-1.27.81V182a3.6,3.6,0,0,0,3.55,3.55h1.42C906.2,182.51,906.25,181.93,910.48,179.45Z"/><path class="cls-5" d="M928.6,142.45v-2.39c-1.78,0-3.67-.39-4.15-1s.15-1.26.55-1.77a29,29,0,0,1,3.6-3.83V130.8c-.57.44-1.13.89-1.66,1.36-.81.72-1.24.37-2-.14-4.11-2.85-7-2.94-10.76,0-1.44,1.12-2,.27-2.93-.48-3.68-3-3.62-3.64.6-6.13a15.38,15.38,0,0,1,16.73,1V124a16.74,16.74,0,0,0-21,2.28,4.59,4.59,0,0,1-2.67,1.16v2.34a23,23,0,0,1,9.08,7.45c1,1.42,1,2-.8,2.25a1.59,1.59,0,0,0-.57.14c-2.68,1.48-4.45.76-6.9-1.3-.26-.22-.54-.42-.81-.63v2.24c.21.19.43.37.64.58,1.07,1.07,1.05,1.71-.26,2.45l-.38.26v2.49A23.51,23.51,0,0,1,928.6,142.45Zm-14-7.8c-.09-1.18,2.93-3,5-2.79s4.14.51,4.61,2.83c.3,1.52-3.06,4-4.93,4-1.61,0-4.54-2.54-4.65-4Z"/><path class="cls-5" d="M988.28,107.9h8.19A15.59,15.59,0,0,0,988.28,107.9Z"/><path class="cls-5" d="M913.08,165.92c-2.85,1-4.67.89-7.18-1.31-.33-.29-.67-.55-1-.81v2.41c.26.23.52.45.78.69,1,.95,1.27,1.73-.25,2.37a.59.59,0,0,0-.24.17l-.29.3v3c6.31-4.11,15.15-5.39,21.67-2.42.7.32,1.38.65,2,1V168.5h-.23a25.45,25.45,0,0,1-5.31-1.76c-1-.46.06-1.18.41-1.65a24.89,24.89,0,0,1,5.13-5.22v-3.08l-.32.29c-1.4,1.47-2.47,1.6-4.34.24-2.94-2.15-6.27-1.9-9.42.17-.61.41-1.18,1.61-2.24.81a30.35,30.35,0,0,1-4.09-3.33c-.45-.47.55-1.14,1-1.59a14.79,14.79,0,0,1,19.38-1V150c-5.46-4-13.77-3.49-19.36.81-2.1,1.63-3.15,2.43-4.35,2.54V156a24.38,24.38,0,0,1,8.93,7.15C914.88,164.48,915.29,165.14,913.08,165.92Zm1.55-5.64c.73-2.56,3.09-2.37,5.06-2.39s4.08.62,4.66,2.76c.37,1.38-3.2,3.94-5,3.91S914.25,161.64,914.63,160.28Z"/><path class="cls-5" d="M928,116.27l.64.3v-2.69a24.67,24.67,0,0,1-4.75-1.63c-1-.46.06-1.18.41-1.65a23.49,23.49,0,0,1,18.88-9.85c7.94.39,14.4,3.33,19.16,9.75,1.06,1.43,1,2-.79,2.26a1.3,1.3,0,0,0-.58.14c-2.68,1.48-4.44.76-6.89-1.31a16.42,16.42,0,0,0-22.46.6h3.1a16.34,16.34,0,0,1,9.37-2.8,14.48,14.48,0,0,1,9.82,4.39c1.07,1.07,1,1.71-.26,2.45a7.54,7.54,0,0,0-1.85,1.47,4.6,4.6,0,0,1-.84.75l1.06,1.61A22.93,22.93,0,0,1,965.77,114l-4-6.08H963c-.06-1.18,2.94-3,5-2.77s4.1.51,4.6,2.77h3.1a23.24,23.24,0,0,1,32.85-.66q.33.31.66.66h3.25a.93.93,0,0,1,0-.57c.72-2.56,3.08-2.37,5-2.39a5.32,5.32,0,0,1,3.68,1.15V104c-2.8-1.72-5.9-1.4-8.85.53-.61.4-1.17,1.61-2.24.81A32.67,32.67,0,0,1,1006,102c-.44-.47.55-1.14,1-1.59a15.33,15.33,0,0,1,10.35-4.17,16.77,16.77,0,0,1,3.79.56V94.65A17.38,17.38,0,0,0,1007,97.79c-4.2,3.23-4.2,3.23-9.54.92A23,23,0,0,1,1021.12,88V83.6a6.75,6.75,0,0,1-4.06,2.15c-1.63,0-4.56-2.55-4.67-4-.09-1.18,2.92-3,5-2.79a6.41,6.41,0,0,1,3.75,1.24V78.07c-3.31-1.82-5.93-1.56-9.16,1-1.45,1.13-2.05.27-2.94-.47-3.67-3.06-3.62-3.64.61-6.13a15.56,15.56,0,0,1,11.49-1.53V68.82a16.77,16.77,0,0,0-15.81,4.52c-1.33,1.33-4,1.55-5.88.76v1.54a22.77,22.77,0,0,1,12.29,8.65c1,1.42,1,2-.8,2.25a1.59,1.59,0,0,0-.57.14c-2.68,1.48-4.44.76-6.9-1.3a17.8,17.8,0,0,0-4-2.59v2a15.71,15.71,0,0,1,3.85,2.82c1.08,1.07,1.06,1.71-.25,2.45a7.73,7.73,0,0,0-1.85,1.47c-1.1,1.21-1.91,1.45-3.37.21-2.76-2.34-6.78-2.73-9.33-.53-2.19,1.91-3.31,1.14-5-.34-2-1.73-2.54-2-1.38-3.17h-2.6a1.11,1.11,0,0,1-.87.14l-.55-.14H955.69c.3.58.11,1.09-.93,1.53a.78.78,0,0,0-.24.16c-1.94,2.18-4,2.83-6.59.92-3-2.23-5.94-1.38-8.63.65-3.07,2.31-4.08-1.15-5.58-2.23-.51-.36-.67-.71-.62-1h-4.5V86.3c-1.65-.06-3.31-.42-3.75-1-.58-.78.15-1.25.54-1.76A28.34,28.34,0,0,1,928.6,80V77.38l-1.27,1c-.81.72-1.24.37-2-.15-4.1-2.85-7-2.94-10.75,0-1.45,1.12-2,.27-2.93-.47-3.68-3.06-3.63-3.65.6-6.13a15.45,15.45,0,0,1,16.33.68V70A16.74,16.74,0,0,0,908,72.55a4.74,4.74,0,0,1-3.06,1.19v2.12a23,23,0,0,1,9.47,7.63c1,1.42,1,2-.8,2.25a1.6,1.6,0,0,0-.57.15c-2.68,1.48-4.44.76-6.89-1.31-.4-.33-.8-.63-1.21-.93v2.19c.35.3.68.61,1,.94,1.08,1.07,1.06,1.71-.25,2.44a8.23,8.23,0,0,0-.78.53v2.54A23.5,23.5,0,0,1,938,95.38c.23.28.45.56.67.85,1.1,1.49,1,1.88-.8,2.52-2.87,1-4.85,1.15-7.42-1.38-5.34-5.24-14.69-5.07-20.79-.37-2.33,1.8-3.37,2.59-4.75,2.55v2.69a24.28,24.28,0,0,1,9.94,7.58c1,1.31,1.46,2-.74,2.76-2.86,1-4.68.88-7.19-1.32a17.18,17.18,0,0,0-2-1.51v2.32a19.39,19.39,0,0,1,1.78,1.48c1,1,1.28,1.73-.25,2.37a.59.59,0,0,0-.24.17,8.55,8.55,0,0,1-1.29,1.19v2.41C911.24,114.79,920.94,113.07,928,116.27ZM919.7,85c-1.63,0-4.56-2.55-4.67-4-.09-1.19,2.93-3,5-2.79s4.14.5,4.61,2.83C924.93,82.46,921.57,85,919.7,85Zm55.58,20.47c-.82.72-1.25.37-2-.15-4.11-2.85-7-2.94-10.76,0-1.44,1.12-2,.27-2.93-.47-3.68-3.06-3.63-3.64.6-6.13,5.42-3.19,13-2.52,17.41,1.55a23.6,23.6,0,0,1,1.79,2c-1.39,1-2.83,2-4.11,3.16ZM987.81,94.7c.64-2.3,2.83-2.89,4.93-2.86s4.11.53,4.8,2.7c.46,1.43-2.94,4-4.94,4C990.8,98.52,987.43,96.06,987.81,94.7ZM976.3,89.54c4,1.82,7.62,4.11,10.24,7.74l1,1.34c-.12.76-.62.82-1.1,1a17.68,17.68,0,0,0-3.09,1c-1.38.72-2.19.37-3.26-.74a16.78,16.78,0,0,0-23.72-.69l-.43.42c-1.77,1.77-5.94,1.57-7.37-.36-.47-.63,0-1,.35-1.55C954,89.35,967.35,85.46,976.3,89.54ZM939.64,93.8c.68-2.14,2.72-2.74,4.78-2.73s4.16.4,4.83,2.62c.43,1.46-2.94,4-4.9,4S939.19,95.22,939.64,93.8Zm-27,10.74a32.67,32.67,0,0,1-4.09-3.33c-.44-.47.56-1.14,1-1.59a14.86,14.86,0,0,1,20.87.2c1,.9,1.08,1.54-.19,2.23a6.64,6.64,0,0,0-1.62,1.27c-1.4,1.47-2.47,1.6-4.34.24-3-2.15-6.28-1.9-9.43.17-.54.4-1.1,1.61-2.17.81Zm2.36,2c.72-2.57,3.08-2.38,5.06-2.39s4.07.61,4.65,2.75c.37,1.38-3.2,3.94-5,3.91S914.64,107.89,915,106.54Z"/><path class="cls-5" d="M971.68,123l-1.58-2.42A17.49,17.49,0,0,0,957.58,124c-.81.63-1.47,1.13-2,1.52l1.2,1.83c.25-.26.58-.52.81-.73a15.38,15.38,0,0,1,10.35-4.18A17.52,17.52,0,0,1,971.68,123Z"/><path class="cls-5" d="M1007.07,43.4c-3.62,2.8-4.12,3.17-7.64,1.73v2.56a23.74,23.74,0,0,1,12.83,8.53c1,1.32,1.46,2-.74,2.76-2.86,1-4.68.88-7.18-1.32a17.1,17.1,0,0,0-4.91-3v2.17A15.69,15.69,0,0,1,1004.1,60c1,1,1.28,1.73-.24,2.38a.67.67,0,0,0-.25.16c-1.29,1.46-2.65,2.22-4.18,2v5.33c4.79-6,13.94-9.1,21.69-7.85V55.26a7.11,7.11,0,0,1-4,2c-1.72,0-5.09-2.92-4.71-4.28.73-2.56,3.09-2.37,5.06-2.39a5.41,5.41,0,0,1,3.6,1.08V49.56c-2.78-1.67-5.85-1.35-8.77.57-.61.4-1.18,1.61-2.24.81a32.67,32.67,0,0,1-4.09-3.33c-.45-.47.55-1.14,1-1.59a15.4,15.4,0,0,1,10.35-4.18,18,18,0,0,1,3.72.55V40.24A17.49,17.49,0,0,0,1007.07,43.4Z"/><path class="cls-5" d="M1000.33,166.78,998,163.17a16.17,16.17,0,0,0-16.41,2.11l1.09,1.65a14,14,0,0,1,8-3A15.61,15.61,0,0,1,1000.33,166.78Z"/><path class="cls-5" d="M928.6,185.56v-1.79c-.77.6-1.52,1.2-2.24,1.79Z"/><path class="cls-5" d="M890.39,14.77c1.1,1.5,1,1.88-.8,2.53a11.82,11.82,0,0,1-2.26.62v3.3a25.29,25.29,0,0,1,9.42-2.07c7.94.38,14.4,3.33,19.16,9.75,1.06,1.42,1,2-.8,2.25a1.59,1.59,0,0,0-.57.14c-2.68,1.48-4.44.76-6.89-1.3-6-5-13.93-5.59-20.32-1.14v2.47l.26-.21a16,16,0,0,1,10.07-3.32,14.48,14.48,0,0,1,9.82,4.39c1.07,1.07,1,1.71-.26,2.45a7.73,7.73,0,0,0-1.85,1.47,4.25,4.25,0,0,1-.48.47v2.59a23.34,23.34,0,0,1,23.71-5.77v-.57h6.12c.31-.66,1.39-1.21,1.94-1.67A14,14,0,0,1,945,27.82a15.37,15.37,0,0,1,11.53,4.4,4.37,4.37,0,0,1,.53.6h19.35a21.49,21.49,0,0,1-3.1-1.18c-1-.46.06-1.18.41-1.65a23.42,23.42,0,0,1,18.88-9.84c7.94.38,14.4,3.33,19.17,9.75,1.05,1.42,1,2-.8,2.25a1.59,1.59,0,0,0-.57.14c-2.68,1.48-4.45.76-6.9-1.3a16.42,16.42,0,0,0-22.65.76c-.3.29-.56.72-.85,1.07h2.6l.84-.71a16,16,0,0,1,10.07-3.32,14.44,14.44,0,0,1,9.82,4.39c1.07,1.07,1,1.71-.26,2.45a7.27,7.27,0,0,0-1.84,1.47c-.65.71-1.19,1.07-1.83,1v3.54a23.11,23.11,0,0,1,21.69-8V29.3a6.73,6.73,0,0,1-4,2.06c-1.63,0-4.56-2.55-4.67-4.05-.09-1.18,2.93-3,5-2.79a6.69,6.69,0,0,1,3.67,1.17V23.64c-3.27-1.78-5.88-1.5-9.09,1-1.44,1.13-2,.27-2.93-.47-3.68-3.06-3.62-3.64.6-6.13a15.58,15.58,0,0,1,11.42-1.56V14.41A16.79,16.79,0,0,0,1005.38,19c-1.76,1.77-5.94,1.57-7.37-.35-.46-.64,0-1.06.35-1.56a20,20,0,0,1,8.12-7h-5.07a3.56,3.56,0,0,1-1.38,0h-3.45a3.35,3.35,0,0,1,2.55,2.36c.44,1.46-2.93,4.05-4.9,4.05s-5.15-2.52-4.7-3.94A3.64,3.64,0,0,1,992.21,10h-3.66a2.14,2.14,0,0,1-2.4,0h-2.56a22.78,22.78,0,0,1,4.95,4.9c1.1,1.49,1,1.88-.8,2.52-2.87,1-4.85,1.15-7.42-1.38-5.32-5.24-14.69-5-20.79-.37-4.2,3.23-4.2,3.23-9.54.92A22.78,22.78,0,0,1,956,10h-3a1.64,1.64,0,0,1-2.12,0h-3.49A3.61,3.61,0,0,1,950,12.42c.46,1.42-2.94,4-4.94,4-1.8,0-5.17-2.47-4.79-3.83A3.58,3.58,0,0,1,943,10h-3.41a2.17,2.17,0,0,1-1.73,0h-4a21.35,21.35,0,0,1,6.3,5.67l1,1.34c-.12.77-.62.83-1.1,1A17.68,17.68,0,0,0,937,19c-1.38.72-2.19.37-3.26-.74A16.78,16.78,0,0,0,910,17.53l-.48.47c-1.77,1.77-5.94,1.57-7.37-.35-.47-.64,0-1.06.35-1.56a19,19,0,0,1,6.31-6h-10A3.26,3.26,0,0,1,901,12.24c.43,1.46-2.94,4-4.9,4s-5.16-2.52-4.71-3.95A3.59,3.59,0,0,1,893.7,10h-3.55a2.08,2.08,0,0,1-1.94,0h-.88v1.4A23.29,23.29,0,0,1,890.39,14.77Zm30.86,15.59c-1.63,0-4.56-2.55-4.67-4.05-.09-1.18,2.93-3,5-2.79s4.14.51,4.61,2.83C926.48,27.87,923.12,30.38,921.25,30.36Zm48.38-.88c-1.73,0-5.1-2.92-4.71-4.27.72-2.57,3.08-2.38,5.05-2.39s4.08.61,4.66,2.75C975,27,971.43,29.51,969.63,29.48ZM959.51,18.29a14.86,14.86,0,0,1,20.87.2c1,.9,1.08,1.54-.19,2.23A6.93,6.93,0,0,0,978.56,22c-1.4,1.47-2.46,1.6-4.33.24-3-2.15-6.28-1.9-9.43.17-.61.4-1.17,1.61-2.24.81a32.67,32.67,0,0,1-4.09-3.33C958,19.41,959,18.74,959.51,18.29Zm-13.27.87a23.76,23.76,0,0,1,18.48,9.33c1,1.31,1.46,2-.74,2.76-2.86,1-4.68.88-7.19-1.32-6.94-6.1-16.52-5.38-23,1.12-1,1.06-6.56.81-7.43-.38-.58-.77.15-1.25.55-1.76C931.8,22.72,938.06,19.3,946.24,19.16ZM913.82,17c5.42-3.18,13-2.52,17.41,1.55.57.53,1,1.15,1.79,2-1.44,1.14-2.85,2.15-4.13,3.29-.82.72-1.25.37-2-.14-4.1-2.86-7-2.95-10.75-.05-1.45,1.13-2,.27-2.93-.47C909.54,20.1,909.59,19.52,913.82,17Z"/><path class="cls-5" d="M913.46,185.56h9.31C919.3,183.39,916.65,183.34,913.46,185.56Z"/><path class="cls-4" d="M928.56,112.19v73.37H908.41a3.61,3.61,0,0,1-3.56-3.55V32.82H887.29V10h130.24a3.6,3.6,0,0,1,3.55,3.55V107.9H961.75l50.83,77.66H994.8l-48-73.33Zm0-24.53h70.83V32.82H928.56Z"/><path class="cls-6" d="M928.67,112.14v73.38H908.51A3.61,3.61,0,0,1,905,182V32.77H887.39V10h130.24a3.59,3.59,0,0,1,3.55,3.55V107.9H961.86l50.83,77.66H994.9l-48-73.33Zm0-24.52H999.5V32.77H928.67Z"/><polygon class="cls-7" points="588.9 185.61 588.9 32.86 527.61 32.86 527.61 10.05 678.96 10.05 678.96 32.86 619.71 32.86 619.71 185.61 588.9 185.61"/><polygon class="cls-8" points="465.87 185.52 427.93 122.95 390.81 185.52 359.42 185.52 412.64 97.74 359.42 9.96 390.81 9.96 427.93 72.52 465.87 9.96 494.96 9.96 442.89 97.74 494.96 185.52 465.87 185.52"/><path class="cls-9" d="M10.06,185.52V162.7H27.63V32.77H10.06V10H140.3a3.61,3.61,0,0,1,3.56,3.55V182a3.62,3.62,0,0,1-3.56,3.56Zm41.3-22.82h70.81V32.77H51.36Z"/><path class="cls-10" d="M197.87,185.52a3.62,3.62,0,0,1-3.56-3.56V13.51A3.6,3.6,0,0,1,197.87,10H307a3.6,3.6,0,0,1,3.55,3.55V32.77H218V87.55h92.55v20.31H218v54.78h92.55v19.74a3.2,3.2,0,0,1-.25,1,3.43,3.43,0,0,1-1,1.39,3.47,3.47,0,0,1-2.24.82Z"/><path class="cls-11" d="M724.26,185.52a3.61,3.61,0,0,1-3.55-3.56V13.51A3.61,3.61,0,0,1,724.26,10H833.38a3.61,3.61,0,0,1,3.56,3.55V32.77H744.39V87.55h92.55v20.31H744.39v54.78h92.55v19.72a3.5,3.5,0,0,1-.25,1c-.1.21-.21.41-.33.61a3.6,3.6,0,0,1-.72.79,3.52,3.52,0,0,1-2.24.81Z"/><rect y="236.15" width="1041.18" height="78.11" rx="12"/><rect class="cls-2" x="9.99" y="246.15" width="1021.18" height="58.11" rx="4.46"/><polygon points="156.54 255.56 152.91 255.56 150.04 273.13 149.82 273.13 149.71 273.13 149.59 273.13 146.72 255.56 143.09 255.56 142.65 255.56 136.29 255.56 136.29 294.85 143.09 294.85 143.09 262.53 143.95 262.53 147.27 281.1 148.88 281.1 150.59 281.1 152.36 281.1 155.68 262.53 156.54 262.53 156.54 294.85 163.35 294.85 163.35 255.56 156.98 255.56 156.54 255.56"/><path d="M177.52,255.56l-11.35,39.29h7.89l1.93-7.44h12l1.93,7.44h7.89l-11.35-39.29Zm.22,25.1,4-15.5h.5l4,15.5Z"/><path d="M222.25,274.2a27.27,27.27,0,0,0,4.52-8.6,32.34,32.34,0,0,0,1.55-10h-7.41a28.54,28.54,0,0,1-.9,7.18,19.87,19.87,0,0,1-2.77,6.24,13.94,13.94,0,0,1-4.73,4.4,12.52,12.52,0,0,1-3.94,1.39V255.56h-7.31v39.29h7.31V282.12a20.34,20.34,0,0,0,6-1.78l6.57,14.51h9l-9.45-18.94A18,18,0,0,0,222.25,274.2Z"/><polygon points="242.69 255.56 233.94 255.56 233.94 262.12 242.69 262.12 242.69 288.27 233.94 288.27 233.94 294.85 242.69 294.85 249.99 294.85 258.79 294.85 258.79 288.27 249.99 288.27 249.99 262.12 258.79 262.12 258.79 255.56 249.99 255.56 242.69 255.56"/><polygon points="284.5 286.27 283.47 286.27 276.56 255.56 272.6 255.56 270.61 255.56 265.57 255.56 265.57 294.85 272.6 294.85 272.6 264.14 273.62 264.14 280.54 294.85 284.5 294.85 285.33 294.85 291.53 294.85 291.53 255.56 284.5 255.56 284.5 286.27"/><path d="M313.67,262a9.38,9.38,0,0,1,4.13.93,8.86,8.86,0,0,1,3.2,2.56l4.59-5.29a11.18,11.18,0,0,0-4.85-3.8,18.58,18.58,0,0,0-7.41-1.34q-8.49,0-13.17,5.27t-4.67,14.87q0,10.13,4.52,15.19t13.55,5.06a33,33,0,0,0,6.94-.65c2-.43,3.45-.77,4.26-1V274.51H311v6.73h6.5v6.95a20.16,20.16,0,0,1-3.29.24c-3.67,0-6.42-1.13-8.27-3.39s-2.77-5.65-2.77-10.17q0-6.17,2.75-9.54A9.44,9.44,0,0,1,313.67,262Z"/><polygon points="369.76 255.56 362.45 255.56 362.45 288.13 362.45 294.85 369.76 294.85 389.4 294.85 389.4 288.13 369.76 288.13 369.76 255.56"/><polygon points="394.64 255.56 394.64 262.28 394.64 271.8 394.64 278.55 394.64 288.13 394.64 294.85 401.94 294.85 421.59 294.85 421.59 288.13 401.94 288.13 401.94 278.55 416.61 278.55 416.61 271.8 401.94 271.8 401.94 262.28 421.59 262.28 421.59 255.56 401.94 255.56 394.64 255.56"/><path d="M435,255.56l-11.34,39.29h7.88l1.93-7.44h12l1.93,7.44h7.88L444,255.56Zm.22,25.1,4-15.5h.49l4,15.5Z"/><path d="M482.22,277.05q3.45-3.42,3.46-9.59,0-5.7-3.46-8.8t-9.8-3.1h-14v39.29h7.31V280.46h6.87l5.77,14.39h8.72l-7.32-16A10.83,10.83,0,0,0,482.22,277.05Zm-16.46-14.77h6.66a5.17,5.17,0,0,1,4,1.5,7,7,0,0,1,0,8.45,5.14,5.14,0,0,1-4,1.51h-6.66Z"/><polygon points="509.78 286.27 508.76 286.27 501.84 255.56 497.88 255.56 495.89 255.56 490.86 255.56 490.86 294.85 497.88 294.85 497.88 264.14 498.91 264.14 505.82 294.85 509.78 294.85 510.61 294.85 516.81 294.85 516.81 255.56 509.78 255.56 509.78 286.27"/><polygon points="532.34 255.56 523.59 255.56 523.59 262.12 532.34 262.12 532.34 288.27 523.59 288.27 523.59 294.85 532.34 294.85 539.64 294.85 548.44 294.85 548.44 288.27 539.64 288.27 539.64 262.12 548.44 262.12 548.44 255.56 539.64 255.56 532.34 255.56"/><polygon points="574.15 286.27 573.12 286.27 566.21 255.56 562.25 255.56 560.26 255.56 555.22 255.56 555.22 294.85 562.25 294.85 562.25 264.14 563.27 264.14 570.19 294.85 574.15 294.85 574.98 294.85 581.18 294.85 581.18 255.56 574.15 255.56 574.15 286.27"/><path d="M603.31,262a9.42,9.42,0,0,1,4.14.93,8.86,8.86,0,0,1,3.2,2.56l4.59-5.29a11.21,11.21,0,0,0-4.86-3.8A18.49,18.49,0,0,0,603,255q-8.49,0-13.17,5.27t-4.67,14.87q0,10.13,4.52,15.19t13.54,5.06a33.13,33.13,0,0,0,6.95-.65c2-.43,3.45-.77,4.26-1V274.51H600.66v6.73h6.5v6.95a20.16,20.16,0,0,1-3.29.24c-3.67,0-6.42-1.13-8.27-3.39s-2.77-5.65-2.77-10.17q0-6.17,2.75-9.54A9.42,9.42,0,0,1,603.31,262Z"/><polygon points="671.67 288.35 670.89 288.35 668.01 265.52 661.54 265.52 658.61 288.35 657.83 288.35 655.42 255.56 648.23 255.56 652.44 294.85 662.37 294.85 664.58 273.07 664.91 273.07 667.13 294.85 677.06 294.85 681.27 255.56 674.07 255.56 671.67 288.35"/><path d="M696.93,255q-15,0-15,20.47,0,19.92,15,19.92t15-19.92Q711.9,255,696.93,255Zm0,33.42q-7.3,0-7.3-12.95,0-13.53,7.3-13.53t7.31,13.53q0,13-7.31,13Z"/><path d="M739.69,277.05q3.45-3.42,3.45-9.59,0-5.7-3.45-8.8t-9.8-3.1h-14v39.29h7.3V280.46h6.87l5.78,14.39h8.71l-7.32-16A10.88,10.88,0,0,0,739.69,277.05Zm-16.47-14.77h6.67a5.17,5.17,0,0,1,4,1.5,7,7,0,0,1,0,8.45,5.14,5.14,0,0,1-4,1.51h-6.67Z"/><polygon points="757.65 255.56 746.44 255.56 746.44 262.28 757.65 262.28 757.65 294.85 764.95 294.85 764.95 262.28 776.16 262.28 776.16 255.56 764.95 255.56 757.65 255.56"/><polygon points="799.38 271.91 787.59 271.91 787.59 255.56 780.28 255.56 780.28 294.85 787.59 294.85 787.59 278.66 799.38 278.66 799.38 294.85 806.68 294.85 806.68 255.56 799.38 255.56 799.38 271.91"/><polygon points="854.17 255.56 845.42 255.56 845.42 262.12 854.17 262.12 854.17 288.27 845.42 288.27 845.42 294.85 854.17 294.85 861.47 294.85 870.27 294.85 870.27 288.27 861.47 288.27 861.47 262.12 870.27 262.12 870.27 255.56 861.47 255.56 854.17 255.56"/><polygon points="904.89 255.56 893.68 255.56 886.38 255.56 875.17 255.56 875.17 262.28 886.38 262.28 886.38 294.85 893.68 294.85 893.68 262.28 904.89 262.28 904.89 255.56"/></g></g></g></g></svg>