<?xml version="1.0" encoding="iso-8859-1"?>
<!-- Uploaded to: SVG Repo, www.svgrepo.com, Generator: SVG Repo Mixer Tools -->
<!DOCTYPE svg PUBLIC "-//W3C//DTD SVG 1.1//EN" "http://www.w3.org/Graphics/SVG/1.1/DTD/svg11.dtd">
<svg fill="#000000" version="1.1" id="Capa_1" xmlns="http://www.w3.org/2000/svg" xmlns:xlink="http://www.w3.org/1999/xlink" 
	 width="800px" height="800px" viewBox="0 0 50 50" xml:space="preserve">
<g>
	<path d="M43.367,0H6.633C2.976,0,0,2.976,0,6.633v36.734C0,47.023,2.976,50,6.633,50h36.734C47.023,50,50,47.023,50,43.367V6.633
		C50,2.976,47.023,0,43.367,0z M16.5,28.744c-0.009,0.105-0.047,0.199-0.116,0.281c-0.165,0.22-0.758,0.363-1.783,0.427
		c-0.308,0.022-0.506,0.039-0.591,0.047c-0.961,0.185-2.065,0.622-3.321,1.313l-0.086,0.047c-1.094,0.598-1.947,0.896-2.579,0.896
		h-0.1L7.825,31.75c-0.985-0.115-1.605-1.061-1.854-2.832c-0.068-0.475-0.101-1.02-0.101-1.638c0-0.196,0.003-0.402,0.012-0.613
		c0.012-0.42,0.038-0.873,0.07-1.36c-0.369-0.065-0.629-0.211-0.772-0.44c-0.066-0.1-0.099-0.211-0.099-0.33
		c0-0.03,0.002-0.062,0.005-0.088c0.014-0.089,0.035-0.183,0.076-0.283c0.063-0.152,0.199-0.363,0.416-0.637
		c0.097-0.134,0.166-0.228,0.197-0.284c0.164-0.267,0.291-0.739,0.38-1.415c0.042-0.33,0.081-0.579,0.118-0.746
		c-0.091,0-0.172-0.004-0.244-0.011c-0.497-0.06-0.821-0.23-0.961-0.509C5.023,20.474,5,20.378,5,20.273
		c0-0.032,0.002-0.066,0.005-0.103c0.021-0.162,0.082-0.334,0.193-0.522c0.206-0.354,0.673-0.643,1.404-0.866
		c0.404-0.129,0.695-0.246,0.858-0.351c0.402-0.267,0.739-0.4,1.005-0.4c0.025,0,0.053,0.002,0.083,0.008
		c0.253,0.028,0.565,0.21,0.937,0.551c0.101,0.1,0.27,0.162,0.49,0.184c0.078,0.01,0.167,0.015,0.258,0.015
		c0.381,0,0.883-0.076,1.501-0.228c0.653-0.15,1.128-0.226,1.428-0.226c0.054,0,0.105,0.002,0.146,0.006l0.048,0.006
		c0.44,0.051,0.707,0.233,0.788,0.552c0.013,0.049,0.023,0.102,0.023,0.158c0,0.031-0.002,0.063-0.011,0.096
		c-0.01,0.112-0.046,0.228-0.107,0.343c-0.112,0.215-0.287,0.401-0.507,0.559c-0.538,0.375-1.347,0.563-2.422,0.563
		c-0.099,0-0.194-0.005-0.297-0.009c-0.082-0.004-0.237-0.019-0.468-0.041c-0.274-0.027-0.519-0.041-0.735-0.041
		c-0.62,0-0.992,0.117-1.129,0.351c-0.136,0.266-0.241,0.695-0.311,1.286c-0.016,0.133-0.029,0.276-0.048,0.432
		c0,0.067-0.003,0.138-0.01,0.208c1.472-0.204,2.827-0.306,4.073-0.31c0.034,0,0.107-0.002,0.223-0.008
		c0.136-0.005,0.265-0.006,0.38-0.006c0.185,0,0.338,0.006,0.457,0.02c0.385,0.045,0.648,0.163,0.783,0.351
		c0.079,0.105,0.117,0.215,0.117,0.331v0.047c-0.003,0.047-0.017,0.09-0.04,0.131c-0.079,0.23-0.29,0.453-0.64,0.675
		c-0.282,0.178-0.536,0.295-0.754,0.351c-0.504,0.126-1.271,0.19-2.292,0.19h-0.104L10.04,24.57c-0.074,0-0.19-0.004-0.352-0.015
		c-0.163-0.007-0.311-0.012-0.438-0.012c-0.183,0-0.322,0.008-0.434,0.027c-0.313,0.051-0.53,0.176-0.649,0.377
		c-0.185,0.322-0.315,0.836-0.396,1.549l-0.014,0.128c-0.024,0.257-0.033,0.5-0.033,0.724c0,0.519,0.063,0.938,0.198,1.266
		c0.126,0.293,0.307,0.468,0.537,0.522c0.049,0.007,0.098,0.017,0.146,0.021c0.07,0.008,0.144,0.012,0.223,0.012
		c0.537,0,1.321-0.191,2.35-0.582c0.297-0.113,0.511-0.195,0.649-0.24c1.21-0.418,2.247-0.627,3.12-0.627
		c0.199,0,0.388,0.014,0.563,0.035c0.156,0.02,0.305,0.043,0.439,0.077c0.226,0.049,0.39,0.224,0.496,0.522
		c0.041,0.107,0.063,0.215,0.063,0.315C16.511,28.691,16.509,28.715,16.5,28.744z M23.754,28.938c-0.04,0.269-0.28,0.522-0.72,0.763
		c-0.41,0.223-0.783,0.337-1.127,0.337h-0.083c-0.834-0.059-2.053-0.094-3.66-0.098c-0.508-0.002-0.868-0.104-1.088-0.304
		c-0.139-0.122-0.209-0.276-0.209-0.459v-0.015c0-0.301,0.168-0.583,0.509-0.839c0.359-0.275,0.793-0.418,1.298-0.433l1.115-0.006
		c1.453,0,2.553,0.117,3.299,0.352c0.451,0.138,0.674,0.342,0.674,0.617C23.762,28.882,23.758,28.908,23.754,28.938z M24.11,26.309
		c0,0.299-0.275,0.526-0.824,0.683c-0.35,0.096-0.755,0.144-1.228,0.144c-0.382,0-0.961-0.043-1.737-0.129
		c-0.705-0.078-1.217-0.117-1.53-0.117c-0.075,0-0.208,0.006-0.405,0.021c-0.355,0.031-0.629,0.047-0.816,0.047
		c-0.646,0-1.051-0.133-1.229-0.398c-0.074-0.106-0.105-0.228-0.105-0.365c0-0.123,0.027-0.262,0.094-0.418
		c0.222-0.522,0.82-0.785,1.801-0.785h1.215c1.248,0,2.234,0.043,2.965,0.125c0.32,0.035,0.676,0.162,1.076,0.386
		c0.468,0.25,0.709,0.511,0.725,0.774v0.033H24.11z M34.548,31.92c-0.098,0-0.216-0.02-0.346-0.056
		c-0.515-0.142-0.875-0.362-1.089-0.667c-0.236-0.334-0.459-0.887-0.658-1.663c-0.221-0.81-0.422-1.372-0.615-1.685
		c0,0.004-0.096,0.354-0.294,1.045c-0.155,0.545-0.305,0.996-0.448,1.355c-0.438,1.122-0.93,1.695-1.463,1.719h-0.017
		c-0.427,0-0.757-0.725-0.993-2.172c-0.165-0.995-0.252-1.5-0.252-1.514c-0.09-0.463-0.198-0.693-0.321-0.693
		c0,0.035-0.346,1.008-1.028,2.915c-0.224,0.617-0.463,1.025-0.727,1.224c-0.139,0.105-0.289,0.16-0.449,0.16
		c-0.227,0-0.471-0.104-0.736-0.305h0.005c0.026,0,0.034-0.219,0.034-0.66c0-0.609-0.023-1.64-0.068-3.088v-0.021
		c0-0.195,0.059-0.396,0.164-0.604c0.119-0.219,0.182-0.426,0.182-0.619c0-0.245,0.164-0.381,0.496-0.403
		c0.402-0.022,0.605-0.037,0.616-0.041c0.118-0.114,0.284-0.303,0.489-0.559c0.199-0.248,0.354-0.418,0.461-0.515
		c0.197-0.174,0.404-0.263,0.633-0.263c0.188,0,0.389,0.064,0.598,0.188c0.295,0.174,0.562,0.722,0.799,1.643
		c0.295,1.15,0.457,1.756,0.485,1.815c0.062-0.123,0.283-0.863,0.675-2.222c0.271-0.939,0.609-1.503,1.016-1.69
		c0.891,0.142,1.627,1.087,2.209,2.839c0.147,0.438,0.353,1.16,0.613,2.166c0.223,0.866,0.401,1.461,0.526,1.781
		C35.043,31.723,34.881,31.92,34.548,31.92z M40.341,31.557c-0.728,0.275-1.364,0.413-1.928,0.413c-0.875,0-1.552-0.334-2.035-1.006
		c-0.346-0.475-0.522-1.077-0.544-1.801V29c0-0.628,0.119-1.252,0.361-1.872c0.262-0.687,0.628-1.241,1.082-1.657
		c0.488-0.435,1.011-0.652,1.578-0.652h0.047c0.521,0,0.863,0.217,1.022,0.652c0.042,0.115,0.065,0.221,0.065,0.324
		c0,0.307-0.186,0.566-0.545,0.775c-0.746,0.449-1.205,0.759-1.367,0.93c-0.293,0.296-0.436,0.641-0.436,1.023
		c0,0.188,0.037,0.39,0.106,0.604c0.165,0.479,0.5,0.716,1.022,0.716c0.082,0,0.168-0.006,0.258-0.021
		c0.431-0.056,1.103-0.291,2.017-0.708c0.952-0.432,1.58-0.676,1.884-0.73c0.094-0.019,0.186-0.027,0.264-0.027
		c0.394,0,0.601,0.213,0.625,0.642C43.676,29.875,42.516,30.727,40.341,31.557z M44.973,24.119
		c-0.027,0.146-0.173,0.253-0.433,0.315c-0.103,0.026-0.287,0.053-0.552,0.076c-0.268,0.022-0.545,0.035-0.826,0.035
		c-0.505,0-1.04-0.037-1.604-0.111c-0.349-0.043-0.556-0.176-0.623-0.396c-0.012-0.043-0.021-0.086-0.021-0.127
		c0-0.178,0.125-0.351,0.367-0.52c0.967-0.675,1.693-1.358,2.195-2.056c0.086-0.12,0.133-0.235,0.143-0.342v-0.016
		c0-0.091-0.03-0.165-0.092-0.229c-0.084-0.083-0.187-0.124-0.321-0.124c-0.088,0-0.196,0.019-0.313,0.058
		c-0.3,0.1-0.561,0.36-0.793,0.786c-0.035,0.068-0.102,0.118-0.187,0.152c-0.063,0.022-0.123,0.034-0.19,0.034
		c-0.019,0-0.039,0-0.057-0.001c-0.094-0.013-0.167-0.048-0.216-0.103c-0.04-0.046-0.058-0.1-0.058-0.16
		c0-0.022,0.002-0.045,0.008-0.068c0.082-0.438,0.334-0.803,0.754-1.104c0.393-0.276,0.809-0.414,1.242-0.414h0.056
		c0.444,0,0.76,0.174,0.952,0.516c0.092,0.173,0.139,0.356,0.139,0.546c0,0.17-0.036,0.347-0.104,0.533
		c-0.155,0.385-0.473,0.785-0.953,1.193c-0.62,0.527-0.983,0.856-1.088,0.984c0.516,0.059,0.928,0.097,1.24,0.113h0.022
		c0.082,0,0.249-0.019,0.506-0.057c0.136-0.02,0.25-0.028,0.347-0.028c0.071,0,0.135,0.005,0.178,0.016
		c0.154,0,0.254,0.056,0.293,0.168C44.997,23.825,45,23.864,45,23.91C45,23.969,44.994,24.04,44.973,24.119z"/>
</g>
</svg>