<?xml version="1.0" encoding="utf-8"?>

<!DOCTYPE svg PUBLIC "-//W3C//DTD SVG 1.1//EN" "http://www.w3.org/Graphics/SVG/1.1/DTD/svg11.dtd">
<!-- Uploaded to: SVG Repo, www.svgrepo.com, Generator: SVG Repo Mixer Tools -->
<svg version="1.1" id="_x32_" xmlns="http://www.w3.org/2000/svg" xmlns:xlink="http://www.w3.org/1999/xlink" 
	 viewBox="0 0 512 512"  xml:space="preserve">
<style type="text/css">
	.st0{fill:#000000;}
</style>
<g>
	<path class="st0" d="M128.595,180.839c-1.572-0.657-3.465-1.076-5.587-1.069c-1.512,0-3.114,0.199-4.84,0.641
		c-1.954,0.496-3.686,1.305-5.145,2.374c-0.893,0.649-1.633,1.398-2.305,2.191c-2.305-1.054-4.809-1.542-7.29-1.542
		c-3.435,0.008-6.886,0.924-9.832,2.84c-2.939,1.893-5.382,4.916-6.328,8.771c-0.29,1.168-0.435,2.329-0.435,3.473
		c0.007,3.786,1.503,7.13,3.496,9.924c3.016,4.198,7.244,7.481,11.015,10.106c1.886,1.306,3.664,2.436,5.099,3.359
		c0.726,0.458,1.36,0.871,1.863,1.214c0.138,0.092,0.229,0.16,0.344,0.237v4.695h23.779h23.778v-5.473
		c1.351-0.886,3.191-2.031,5.206-3.39c3.229-2.183,6.893-4.901,9.916-8.236c1.512-1.672,2.87-3.519,3.878-5.58
		c1.001-2.069,1.65-4.382,1.65-6.848c0-1.145-0.138-2.313-0.428-3.481c-0.962-3.855-3.39-6.878-6.336-8.771
		c-2.946-1.916-6.396-2.832-9.832-2.84c-2.473,0-4.962,0.488-7.267,1.542c-0.672-0.793-1.435-1.542-2.32-2.191
		c-1.459-1.069-3.192-1.878-5.146-2.374c-1.725-0.442-3.328-0.641-4.839-0.641c-2.122-0.008-4.016,0.412-5.588,1.069
		c-0.283,0.115-0.443,0.298-0.703,0.42v-9.694h7.176v-5.092h-7.176v-7.87h-5.099v7.87h-7.176v5.092h7.176v9.694
		C129.038,181.137,128.874,180.954,128.595,180.839z M107.282,197.93c-4.336,1.1-8.443,3.902-9.726,7.695
		c-1.022-1.168-1.855-2.358-2.404-3.496c-0.61-1.26-0.908-2.436-0.908-3.611c0-0.542,0.061-1.099,0.206-1.671
		c0.496-1.916,1.58-3.306,3.183-4.359c1.604-1.054,3.71-1.649,5.794-1.649c1.481,0,2.901,0.306,4.122,0.839
		c-0.267,1.329-0.405,2.642-0.405,3.939C107.145,196.404,107.206,197.175,107.282,197.93z M128.137,193.366
		c-4.305,0.542-9.717,1.756-13.511,3.534c-0.03-0.428-0.076-0.855-0.069-1.283c-0.007-1.977,0.435-3.816,1.26-5.137
		c0.412-0.672,0.916-1.229,1.572-1.71c0.656-0.482,1.489-0.894,2.611-1.184c1.184-0.298,2.168-0.412,3.008-0.412
		c1.176,0,2.046,0.221,2.74,0.504c1.038,0.435,1.74,1.084,2.19,1.618c0.076,0.092,0.138,0.176,0.198,0.26V193.366z M160.259,190.839
		c2.092,0,4.198,0.596,5.794,1.641c1.604,1.061,2.696,2.443,3.184,4.359c0.152,0.58,0.213,1.137,0.213,1.687
		c0,1.764-0.702,3.626-2.122,5.611c-0.122,0.175-0.274,0.351-0.397,0.519c-1.77-3.618-6.137-6.168-10.504-6.962
		c0.061-0.687,0.114-1.374,0.114-2.077c0-1.29-0.122-2.61-0.389-3.939C157.374,191.145,158.786,190.839,160.259,190.839z
		 M135.55,189.557c0.237-0.321,0.58-0.718,1.061-1.1c0.871-0.656,2.015-1.267,4.076-1.282c0.832,0,1.824,0.114,3.008,0.412
		c1.114,0.29,1.954,0.702,2.611,1.184c0.977,0.724,1.633,1.626,2.121,2.794c0.466,1.152,0.711,2.572,0.703,4.053
		c0.008,0.259-0.03,0.519-0.046,0.786c-4.061-1.656-9.466-2.756-13.534-3.168V189.557z"/>
	<path class="st0" d="M130.298,300.748c7.511,0,13.596-6.734,13.596-15.046c0-8.313-6.085-15.046-13.596-15.046
		c-7.504,0-13.596,6.732-13.596,15.046C116.702,294.014,122.793,300.748,130.298,300.748z"/>
	<path class="st0" d="M60.946,216.305c-0.442-0.206-0.969-0.336-1.565-0.336c-0.42,0-0.862,0.068-1.351,0.198
		c-0.542,0.161-1.03,0.412-1.435,0.749c-0.245,0.198-0.458,0.442-0.641,0.686c-0.642-0.328-1.344-0.489-2.031-0.489
		c-0.962,0-1.924,0.291-2.756,0.901c-0.817,0.588-1.496,1.534-1.764,2.741c-0.084,0.366-0.122,0.724-0.122,1.091
		c0,1.191,0.42,2.229,0.977,3.107c0.84,1.32,2.023,2.343,3.077,3.167c0.527,0.413,1.023,0.764,1.427,1.054
		c0.199,0.146,0.374,0.275,0.519,0.382c0.03,0.024,0.061,0.046,0.092,0.077v1.466h6.642h6.641v-1.718
		c0.374-0.275,0.885-0.634,1.45-1.061c0.901-0.687,1.924-1.535,2.771-2.58c0.42-0.519,0.801-1.1,1.084-1.749
		c0.282-0.649,0.465-1.366,0.465-2.145c0-0.367-0.045-0.726-0.122-1.091c-0.274-1.206-0.946-2.153-1.77-2.741
		c-0.825-0.61-1.787-0.901-2.748-0.901c-0.687,0-1.389,0.161-2.031,0.489c-0.183-0.244-0.397-0.489-0.641-0.686
		c-0.412-0.336-0.901-0.588-1.443-0.749c-0.481-0.13-0.923-0.198-1.351-0.198c-0.596,0-1.114,0.13-1.557,0.336
		c-0.081,0.038-0.127,0.091-0.199,0.13v-3.03h2v-1.596h-2v-2.473h-1.42v2.473h-2.007v1.596h2.007v3.03
		C61.073,216.396,61.026,216.343,60.946,216.305z"/>
	<rect x="50.183" y="328.068" class="st0" width="23.145" height="15.741"/>
	<rect x="50.183" y="234.076" class="st0" width="23.145" height="8.336"/>
	<path class="st0" d="M44.313,279.45c1.741,1.304,10.824-12.481,38.358-5.756c0,15.81,0,31.932,0,36.985
		c0,3.106,0.474,6.755,1.871,10.534c2.061,5.672,6.282,11.626,13.656,15.947c7.374,4.351,17.71,7.114,32.099,7.114
		c9.595,0,17.381-1.221,23.702-3.328c9.481-3.144,15.641-8.366,19.237-14.038c3.618-5.656,4.687-11.588,4.687-16.228
		c0-5.015,0-20.954,0-36.657c28.397-7.374,37.74,6.748,39.504,5.428c1.855-1.39,4.168-6.016,3.702-11.115
		c-17.252-11.626-32.744-9.359-43.206-7.038c0-5.092,0-9.824,0-13.657c0-5.984,0-9.854,0-9.854v-3.71h-47.626H82.671v3.71
		c0,0,0,10.343,0,23.274c-10.434-2.214-25.408-3.954-42.06,7.275C40.152,273.434,42.458,278.06,44.313,279.45z M90.076,285.938
		h21.206c0-0.084-0.016-0.16-0.016-0.236c0-11.642,8.527-21.069,19.031-21.069c0.466,0,0.908,0.038,1.366,0.076V241.48h38.855
		c0,7.756,0,26.382,0,42.603h-21.267c0.046,0.527,0.076,1.069,0.076,1.619c0,11.641-8.519,21.069-19.03,21.069
		c-0.458,0-0.908-0.038-1.366-0.077v30.145c-8.306-0.106-14.87-1.221-19.984-2.924c-8.107-2.725-12.634-6.786-15.344-10.992
		c-2.688-4.206-3.527-8.725-3.527-12.244C90.076,306.946,90.076,297.168,90.076,285.938z"/>
	<path class="st0" d="M68.397,274.06c-6.963,0-11.917,1.588-15.435,3.298v10.908c5.679-2.97,12.381-6.511,17.588-9.282v-4.878
		C69.832,274.076,69.107,274.06,68.397,274.06z"/>
	<path class="st0" d="M52.962,304.434v20.389H70.55V295.16C65.404,298,57.542,302.076,52.962,304.434z"/>
	<path class="st0" d="M68.84,257.198c0.58,0,1.145,0.023,1.71,0.038V246.58H52.962v13.16
		C58.061,258.046,63.313,257.198,68.84,257.198z"/>
	<path class="st0" d="M74.412,279.45c0,0-28.702,15.282-31.954,16.672c-3.237,1.389-0.916,7.87,0,9.259
		c0.931,1.39,0.931,6.481,2.779,6.023c1.862-0.465,3.71-7.412,3.71-7.412s22.687-11.58,25.008-13.428
		C76.267,288.717,74.412,279.45,74.412,279.45z"/>
	<path class="st0" d="M198.984,216.305c-0.443-0.206-0.969-0.336-1.565-0.336c-0.42,0-0.87,0.068-1.344,0.198
		c-0.55,0.161-1.038,0.412-1.443,0.749c-0.252,0.198-0.466,0.442-0.649,0.686c-0.641-0.328-1.344-0.489-2.03-0.489
		c-0.962,0-1.924,0.291-2.748,0.901c-0.817,0.588-1.496,1.534-1.764,2.741c-0.084,0.366-0.122,0.724-0.122,1.091
		c0,0.778,0.183,1.496,0.466,2.145c0.275,0.649,0.656,1.23,1.076,1.749c0.847,1.045,1.87,1.892,2.771,2.58
		c0.565,0.427,1.076,0.786,1.45,1.061v1.718h6.641h6.641v-1.466c0.031-0.031,0.061-0.053,0.1-0.077
		c0.145-0.106,0.313-0.236,0.519-0.382c0.405-0.29,0.893-0.641,1.428-1.054c1.054-0.824,2.229-1.847,3.069-3.167
		c0.565-0.878,0.977-1.916,0.977-3.107c0-0.367-0.03-0.726-0.122-1.091c-0.26-1.206-0.946-2.153-1.763-2.741
		c-0.832-0.61-1.786-0.901-2.74-0.901c-0.702,0-1.397,0.161-2.046,0.489c-0.183-0.244-0.397-0.489-0.641-0.686
		c-0.397-0.336-0.886-0.588-1.435-0.749c-0.481-0.13-0.931-0.198-1.351-0.198c-0.588,0-1.122,0.13-1.565,0.336
		c-0.08,0.038-0.126,0.091-0.198,0.13v-3.03h2.015v-1.596h-2.015v-2.473h-1.42v2.473h-2v1.596h2v3.03
		C199.107,216.389,199.061,216.343,198.984,216.305z"/>
	<rect x="188.412" y="328.068" class="st0" width="23.153" height="15.741"/>
	<rect x="188.412" y="234.076" class="st0" width="23.153" height="8.336"/>
	<path class="st0" d="M193.343,274.06c-0.702,0-1.428,0.016-2.152,0.046v4.878c5.206,2.771,11.908,6.313,17.595,9.282v-10.908
		C205.267,275.648,200.305,274.06,193.343,274.06z"/>
	<path class="st0" d="M191.191,295.16v29.664h17.595v-20.389C204.198,302.076,196.336,298,191.191,295.16z"/>
	<path class="st0" d="M192.9,257.198c5.527,0,10.786,0.848,15.886,2.542v-13.16h-17.595v10.656
		C191.756,257.221,192.32,257.198,192.9,257.198z"/>
	<path class="st0" d="M216.504,311.404c1.847,0.458,1.847-4.633,2.779-6.023c0.924-1.389,3.236-7.87,0-9.259
		c-3.244-1.39-31.954-16.672-31.954-16.672s-1.847,9.267,0.466,11.114c2.313,1.848,25,13.428,25,13.428
		S214.648,310.939,216.504,311.404z"/>
	<rect y="35.176" class="st0" width="512" height="107.801"/>
	<rect y="369.022" class="st0" width="512" height="107.802"/>
</g>
</svg>